STARTFONT 2.1
FONT -FontForge-04b-Book-R-Normal--75-720-75-75-P-602-ISO10646-1
SIZE 72 75 75
FONTBOUNDINGBOX 67 75 0 -9
COMMENT "Generated by fontforge, http://fontforge.sourceforge.net"
COMMENT "2000 / yuji oshimoo  / 04@jp.org / www.04.jp.org"
STARTPROPERTIES 39
FOUNDRY "FontForge"
FAMILY_NAME "04b"
WEIGHT_NAME "Book"
SLANT "R"
SETWIDTH_NAME "Normal"
ADD_STYLE_NAME ""
PIXEL_SIZE 75
POINT_SIZE 720
RESOLUTION_X 75
RESOLUTION_Y 75
SPACING "P"
AVERAGE_WIDTH 602
CHARSET_REGISTRY "ISO10646"
CHARSET_ENCODING "1"
FONTNAME_REGISTRY ""
CHARSET_COLLECTIONS "ISO10646-1"
FONT_NAME "04b30"
FACE_NAME "04b 30"
COPYRIGHT "2000 / yuji oshimoo  / 04@jp.org / www.04.jp.org"
FONT_VERSION "Macromedia Fonographer 4.1J 01.5.8"
FONT_ASCENT 66
FONT_DESCENT 9
UNDERLINE_POSITION -11
UNDERLINE_THICKNESS 2
X_HEIGHT 52
CAP_HEIGHT 61
RAW_ASCENT 882
RAW_DESCENT 117
NORM_SPACE 62
RELATIVE_WEIGHT 40
RELATIVE_SETWIDTH 50
SUPERSCRIPT_X 0
SUPERSCRIPT_Y 33
SUPERSCRIPT_SIZE 48
SUBSCRIPT_X 0
SUBSCRIPT_Y 10
SUBSCRIPT_SIZE 48
AVG_LOWERCASE_WIDTH 610
AVG_UPPERCASE_WIDTH 699
ENDPROPERTIES
CHARS 101
STARTCHAR space
ENCODING 32
SWIDTH 823 0
DWIDTH 62 0
BBX 1 1 0 0
BITMAP
00
ENDCHAR
STARTCHAR exclam
ENCODING 33
SWIDTH 529 0
DWIDTH 40 0
BBX 31 62 1 0
BITMAP
0FFFFFC0
0FFFFFC0
0FFFFFC0
0FFFFFC0
0FFFFFC0
F007FFFE
F007FFFE
F007FFFE
F007FFFE
F007FFFE
F0FFFFFE
F0FFFFFE
F0FFFFFE
F0FFFFFE
FFFFFFFE
FFFFFFFE
FFFFFFFE
FFFFFFFE
FFFFFFFE
FFFFFFFE
FFFFFFFE
FFFFFFFE
0FFFFFC0
0FFFFFC0
0FFFFFC0
0FFFFFC0
0FFFFFC0
0FFFFFC0
0FFFFFC0
0FFFFFC0
0FFFFFC0
00FFFC00
00FFFC00
00FFFC00
00FFFC00
00000000
00000000
00000000
00000000
00000000
00FFFC00
00FFFC00
00FFFC00
00FFFC00
0FFFFFC0
0FFFFFC0
0FFFFFC0
0FFFFFC0
0FFFFFC0
0FFFFFC0
0FFFFFC0
0FFFFFC0
0FFFFFC0
0FFFFFC0
0FFFFFC0
0FFFFFC0
0FFFFFC0
0FFFFFC0
00FFFC00
00FFFC00
00FFFC00
00FFFC00
ENDCHAR
STARTCHAR quotedbl
ENCODING 34
SWIDTH 823 0
DWIDTH 62 0
BBX 53 31 1 26
BITMAP
0FFF80001FFF80
0FFF80001FFF80
0FFF80001FFF80
0FFF80001FFF80
F007FC01E00FF8
F007FC01E00FF8
F007FC01E00FF8
F007FC01E00FF8
F007FC01E00FF8
F0FFFC01E1FFF8
F0FFFC01E1FFF8
F0FFFC01E1FFF8
F0FFFC01E1FFF8
FFFFFC01FFFFF8
FFFFFC01FFFFF8
FFFFFC01FFFFF8
FFFFFC01FFFFF8
FFFFFC01FFFFF8
FFFFFC01FFFFF8
FFFFFC01FFFFF8
FFFFFC01FFFFF8
FFFFFC01FFFFF8
FFFFFC01FFFFF8
FFFFFC01FFFFF8
FFFFFC01FFFFF8
FFFFFC01FFFFF8
0FFF80001FFF80
0FFF80001FFF80
0FFF80001FFF80
0FFF80001FFF80
0FFF80001FFF80
ENDCHAR
STARTCHAR numbersign
ENCODING 35
SWIDTH 941 0
DWIDTH 71 0
BBX 62 62 1 0
BITMAP
0007FFE001FF8000
0007FFE001FF8000
0007FFE001FF8000
0007FFE001FF8000
0007FFE001FF8000
007803FE1FFFF800
007803FE1FFFF800
007803FE1FFFF800
007803FE1FFFF800
007803FE1FFFF800
00787FFE1FFFF800
00787FFE1FFFF800
00787FFE1FFFF800
00787FFE1FFFF800
0FFFFFFE1FFFFF80
0FFFFFFE1FFFFF80
0FFFFFFE1FFFFF80
0FFFFFFE1FFFFF80
FFFFFFFFFFFFFFFC
FFFFFFFFFFFFFFFC
FFFFFFFFFFFFFFFC
FFFFFFFFFFFFFFFC
FFFFFFFFFFFFFFFC
0FFFFFFFFFFFFF80
0FFFFFFFFFFFFF80
0FFFFFFFFFFFFF80
0FFFFFFFFFFFFF80
007FFFFE1FFFF800
007FFFFE1FFFF800
007FFFFE1FFFF800
007FFFFE1FFFF800
007FFFFE1FFFF800
007FFFFE1FFFF800
007FFFFE1FFFF800
007FFFFE1FFFF800
007FFFFE1FFFF800
0FFFFFFFFFFFFF80
0FFFFFFFFFFFFF80
0FFFFFFFFFFFFF80
0FFFFFFFFFFFFF80
FFFFFFFFFFFFFFFC
FFFFFFFFFFFFFFFC
FFFFFFFFFFFFFFFC
FFFFFFFFFFFFFFFC
0FFFFFFE1FFFFF80
0FFFFFFE1FFFFF80
0FFFFFFE1FFFFF80
0FFFFFFE1FFFFF80
0FFFFFFE1FFFFF80
007FFFFE1FFFF800
007FFFFE1FFFF800
007FFFFE1FFFF800
007FFFFE1FFFF800
007FFFFE1FFFF800
007FFFFE1FFFF800
007FFFFE1FFFF800
007FFFFE1FFFF800
007FFFFE1FFFF800
0007FFE001FF8000
0007FFE001FF8000
0007FFE001FF8000
0007FFE001FF8000
ENDCHAR
STARTCHAR dollar
ENCODING 36
SWIDTH 823 0
DWIDTH 62 0
BBX 1 1 0 0
BITMAP
00
ENDCHAR
STARTCHAR percent
ENCODING 37
SWIDTH 941 0
DWIDTH 71 0
BBX 62 62 1 0
BITMAP
0FFFC000000FFF80
0FFFC000000FFF80
0FFFC000000FFF80
0FFFC000000FFF80
0FFFC000000FFF80
F007FC0000FFFFFC
F007FC0000FFFFFC
F007FC0000FFFFFC
F007FC0000FFFFFC
F007FC0000FFFFFC
F0FFFC001FFFFFFC
F0FFFC001FFFFFFC
F0FFFC001FFFFFFC
F0FFFC001FFFFFFC
FFFFFC01FFFFFFFC
FFFFFC01FFFFFFFC
FFFFFC01FFFFFFFC
FFFFFC01FFFFFFFC
0FFFC01FFFFFFF80
0FFFC01FFFFFFF80
0FFFC01FFFFFFF80
0FFFC01FFFFFFF80
000003FFFFFFF800
000003FFFFFFF800
000003FFFFFFF800
000003FFFFFFF800
000003FFFFFFF800
00003FFFFFFF8000
00003FFFFFFF8000
00003FFFFFFF8000
00003FFFFFFF8000
0007FFFFFFF00000
0007FFFFFFF00000
0007FFFFFFF00000
0007FFFFFFF00000
00FFFFFFFF000000
00FFFFFFFF000000
00FFFFFFFF000000
00FFFFFFFF000000
00FFFFFFFF000000
0FFFFFFFE00FFF80
0FFFFFFFE00FFF80
0FFFFFFFE00FFF80
0FFFFFFFE00FFF80
FFFFFFFE00FFFFFC
FFFFFFFE00FFFFFC
FFFFFFFE00FFFFFC
FFFFFFFE00FFFFFC
FFFFFFFE00FFFFFC
FFFFFFE000FFFFFC
FFFFFFE000FFFFFC
FFFFFFE000FFFFFC
FFFFFFE000FFFFFC
FFFFFC0000FFFFFC
FFFFFC0000FFFFFC
FFFFFC0000FFFFFC
FFFFFC0000FFFFFC
FFFFFC0000FFFFFC
0FFFC000000FFF80
0FFFC000000FFF80
0FFFC000000FFF80
0FFFC000000FFF80
ENDCHAR
STARTCHAR ampersand
ENCODING 38
SWIDTH 823 0
DWIDTH 62 0
BBX 1 1 0 0
BITMAP
00
ENDCHAR
STARTCHAR quotesingle
ENCODING 39
SWIDTH 411 0
DWIDTH 31 0
BBX 22 31 1 26
BITMAP
0FFFC0
0FFFC0
0FFFC0
0FFFC0
F007FC
F007FC
F007FC
F007FC
F007FC
F0FFFC
F0FFFC
F0FFFC
F0FFFC
FFFFFC
FFFFFC
FFFFFC
FFFFFC
FFFFFC
FFFFFC
FFFFFC
FFFFFC
FFFFFC
FFFFFC
FFFFFC
FFFFFC
FFFFFC
0FFFC0
0FFFC0
0FFFC0
0FFFC0
0FFFC0
ENDCHAR
STARTCHAR parenleft
ENCODING 40
SWIDTH 588 0
DWIDTH 44 0
BBX 35 62 1 0
BITMAP
00007FFE00
00007FFE00
00007FFE00
00007FFE00
00007FFE00
000003FFE0
000003FFE0
000003FFE0
000003FFE0
000003FFE0
00787FFFE0
00787FFFE0
00787FFFE0
0FFFFFFE00
0FFFFFFE00
0FFFFFFE00
0FFFFFFE00
0FFFFFFE00
0FFFFFC000
0FFFFFC000
0FFFFFC000
0FFFFFC000
FFFFFC0000
FFFFFC0000
FFFFFC0000
FFFFFC0000
FFFFFC0000
FFFFFC0000
FFFFFC0000
FFFFFC0000
FFFFFC0000
FFFFFC0000
FFFFFC0000
FFFFFC0000
FFFFFC0000
FFFFFC0000
FFFFFC0000
FFFFFC0000
FFFFFC0000
FFFFFC0000
0FFFFFC000
0FFFFFC000
0FFFFFC000
0FFFFFC000
0FFFFFFE00
0FFFFFFE00
0FFFFFFE00
0FFFFFFE00
0FFFFFFE00
007FFFFFE0
007FFFFFE0
007FFFFFE0
007FFFFFE0
0007FFFFE0
0007FFFFE0
0007FFFFE0
0007FFFFE0
0007FFFFE0
00007FFE00
00007FFE00
00007FFE00
00007FFE00
ENDCHAR
STARTCHAR parenright
ENCODING 41
SWIDTH 588 0
DWIDTH 44 0
BBX 35 62 1 0
BITMAP
0FFF800000
0FFF800000
0FFF800000
0FFF800000
0FFF800000
F007FC0000
F007FC0000
F007FC0000
F007FC0000
F0FFFFC000
F0FFFFC000
F0FFFFC000
F0FFFFC000
0FFFFFFC00
0FFFFFFC00
0FFFFFFC00
0FFFFFFC00
0FFFFFFC00
00FFFFFC00
00FFFFFC00
00FFFFFC00
00FFFFFC00
0007FFFFE0
0007FFFFE0
0007FFFFE0
0007FFFFE0
0007FFFFE0
0007FFFFE0
0007FFFFE0
0007FFFFE0
0007FFFFE0
0007FFFFE0
0007FFFFE0
0007FFFFE0
0007FFFFE0
0007FFFFE0
0007FFFFE0
0007FFFFE0
0007FFFFE0
0007FFFFE0
00FFFFFC00
00FFFFFC00
00FFFFFC00
00FFFFFC00
0FFFFFFC00
0FFFFFFC00
0FFFFFFC00
0FFFFFFC00
0FFFFFFC00
FFFFFFC000
FFFFFFC000
FFFFFFC000
FFFFFFC000
FFFFFC0000
FFFFFC0000
FFFFFC0000
FFFFFC0000
FFFFFC0000
0FFF800000
0FFF800000
0FFF800000
0FFF800000
ENDCHAR
STARTCHAR asterisk
ENCODING 42
SWIDTH 529 0
DWIDTH 40 0
BBX 31 31 1 31
BITMAP
0FF87FC0
0FF87FC0
0FF87FC0
0FF87FC0
0FF87FC0
F007FFFE
F007FFFE
F007FFFE
F007FFFE
F007FFFE
F0FFFFFE
F0FFFFFE
F0FFFFFE
F0FFFFFE
0FFFFFC0
0FFFFFC0
0FFFFFC0
0FFFFFC0
0FFFFFC0
FFFFFFFE
FFFFFFFE
FFFFFFFE
FFFFFFFE
FFFFFFFE
FFFFFFFE
FFFFFFFE
FFFFFFFE
0FF87FC0
0FF87FC0
0FF87FC0
0FF87FC0
ENDCHAR
STARTCHAR plus
ENCODING 43
SWIDTH 941 0
DWIDTH 71 0
BBX 62 62 1 0
BITMAP
000003FFFF000000
000003FFFF000000
000003FFFF000000
000003FFFF000000
000003FFFF000000
00003C01FFF00000
00003C01FFF00000
00003C01FFF00000
00003C01FFF00000
00003C01FFF00000
00003C3FFFF00000
00003C3FFFF00000
00003C3FFFF00000
00003C3FFFF00000
00003FFFFFF00000
00003FFFFFF00000
00003FFFFFF00000
00003FFFFFF00000
00003FFFFFF00000
00003FFFFFF00000
00003FFFFFF00000
00003FFFFFF00000
0FFFFFFFFFFFFF80
0FFFFFFFFFFFFF80
0FFFFFFFFFFFFF80
0FFFFFFFFFFFFF80
0FFFFFFFFFFFFF80
FFFFFFFFFFFFFFFC
FFFFFFFFFFFFFFFC
FFFFFFFFFFFFFFFC
FFFFFFFFFFFFFFFC
FFFFFFFFFFFFFFFC
FFFFFFFFFFFFFFFC
FFFFFFFFFFFFFFFC
FFFFFFFFFFFFFFFC
FFFFFFFFFFFFFFFC
0FFFFFFFFFFFFF80
0FFFFFFFFFFFFF80
0FFFFFFFFFFFFF80
0FFFFFFFFFFFFF80
00003FFFFFF00000
00003FFFFFF00000
00003FFFFFF00000
00003FFFFFF00000
00003FFFFFF00000
00003FFFFFF00000
00003FFFFFF00000
00003FFFFFF00000
00003FFFFFF00000
00003FFFFFF00000
00003FFFFFF00000
00003FFFFFF00000
00003FFFFFF00000
00003FFFFFF00000
00003FFFFFF00000
00003FFFFFF00000
00003FFFFFF00000
00003FFFFFF00000
000003FFFF000000
000003FFFF000000
000003FFFF000000
000003FFFF000000
ENDCHAR
STARTCHAR comma
ENCODING 44
SWIDTH 411 0
DWIDTH 31 0
BBX 22 30 1 -4
BITMAP
0FFFC0
0FFFC0
0FFFC0
0FFFC0
F007FC
F007FC
F007FC
F007FC
F007FC
F0FFFC
F0FFFC
F0FFFC
F0FFFC
FFFFFC
FFFFFC
FFFFFC
FFFFFC
FFFFFC
FFFFFC
FFFFFC
FFFFFC
FFFFFC
FFFFFC
FFFFFC
FFFFFC
FFFFFC
0FFFC0
0FFFC0
0FFFC0
0FFFC0
ENDCHAR
STARTCHAR hyphen
ENCODING 45
SWIDTH 823 0
DWIDTH 62 0
BBX 53 22 1 18
BITMAP
0FFFFFFFFFFF80
0FFFFFFFFFFF80
0FFFFFFFFFFF80
0FFFFFFFFFFF80
0FFFFFFFFFFF80
F007FFFFFFFFF8
F007FFFFFFFFF8
F007FFFFFFFFF8
F007FFFFFFFFF8
F007FFFFFFFFF8
F0FFFFFFFFFFF8
F0FFFFFFFFFFF8
F0FFFFFFFFFFF8
F0FFFFFFFFFFF8
FFFFFFFFFFFFF8
FFFFFFFFFFFFF8
FFFFFFFFFFFFF8
FFFFFFFFFFFFF8
0FFFFFFFFFFF80
0FFFFFFFFFFF80
0FFFFFFFFFFF80
0FFFFFFFFFFF80
ENDCHAR
STARTCHAR period
ENCODING 46
SWIDTH 411 0
DWIDTH 31 0
BBX 22 22 1 4
BITMAP
0FFFC0
0FFFC0
0FFFC0
0FFFC0
F007FC
F007FC
F007FC
F007FC
F007FC
F0FFFC
F0FFFC
F0FFFC
F0FFFC
FFFFFC
FFFFFC
FFFFFC
FFFFFC
0FFFC0
0FFFC0
0FFFC0
0FFFC0
0FFFC0
ENDCHAR
STARTCHAR slash
ENCODING 47
SWIDTH 941 0
DWIDTH 71 0
BBX 62 62 1 0
BITMAP
00000000000FFF80
00000000000FFF80
00000000000FFF80
00000000000FFF80
00000000000FFF80
0000000000FFFFFC
0000000000FFFFFC
0000000000FFFFFC
0000000000FFFFFC
000000001FFFFFFC
000000001FFFFFFC
000000001FFFFFFC
000000001FFFFFFC
00000001FFFFFFFC
00000001FFFFFFFC
00000001FFFFFFFC
00000001FFFFFFFC
00000001FFFFFFFC
0000003FFFFFFF80
0000003FFFFFFF80
0000003FFFFFFF80
0000003FFFFFFF80
000003FFFFFFF800
000003FFFFFFF800
000003FFFFFFF800
000003FFFFFFF800
000003FFFFFFF800
00003FFFFFFF8000
00003FFFFFFF8000
00003FFFFFFF8000
00003FFFFFFF8000
0007FFFFFFF00000
0007FFFFFFF00000
0007FFFFFFF00000
0007FFFFFFF00000
0007FFFFFFF00000
007FFFFFFF000000
007FFFFFFF000000
007FFFFFFF000000
007FFFFFFF000000
0FFFFFFFE0000000
0FFFFFFFE0000000
0FFFFFFFE0000000
0FFFFFFFE0000000
FFFFFFFE00000000
FFFFFFFE00000000
FFFFFFFE00000000
FFFFFFFE00000000
FFFFFFFE00000000
FFFFFFC000000000
FFFFFFC000000000
FFFFFFC000000000
FFFFFFC000000000
FFFFFC0000000000
FFFFFC0000000000
FFFFFC0000000000
FFFFFC0000000000
FFFFFC0000000000
0FFFC00000000000
0FFFC00000000000
0FFFC00000000000
0FFFC00000000000
ENDCHAR
STARTCHAR zero
ENCODING 48
SWIDTH 941 0
DWIDTH 71 0
BBX 62 62 1 0
BITMAP
00FFFFFFFFFFF800
00FFFFFFFFFFF800
00FFFFFFFFFFF800
00FFFFFFFFFFF800
00FFFFFFFFFFF800
0007FFFFFFFFFF80
0007FFFFFFFFFF80
0007FFFFFFFFFF80
0007FFFFFFFFFF80
0007FFFFFFFFFF80
F0FFFFFFFFFFFFFC
F0FFFFFFFFFFFFFC
F0FFFFFFFFFFFFFC
FFFFFFFE000FFFFC
FFFFFFFE000FFFFC
FFFFFFFE000FFFFC
FFFFFFFE000FFFFC
FFFFFFFE000FFFFC
FFFFFFFE000FFFFC
FFFFFFFE000FFFFC
FFFFFFFE000FFFFC
FFFFFFFE000FFFFC
FFFFFFFE000FFFFC
FFFFFFFE000FFFFC
FFFFFFFE000FFFFC
FFFFFFFE000FFFFC
FFFFFFFE000FFFFC
FFFFFFFE000FFFFC
FFFFFFFE000FFFFC
FFFFFFFE000FFFFC
FFFFFFFE000FFFFC
FFFFFFFE000FFFFC
FFFFFFFE000FFFFC
FFFFFFFE000FFFFC
FFFFFFFE000FFFFC
FFFFFFFE000FFFFC
FFFFFFFE000FFFFC
FFFFFFFE000FFFFC
FFFFFFFE000FFFFC
FFFFFFFE000FFFFC
FFFFFFFE000FFFFC
FFFFFFFE000FFFFC
FFFFFFFE000FFFFC
FFFFFFFE000FFFFC
FFFFFFFFFFFFFFFC
FFFFFFFFFFFFFFFC
FFFFFFFFFFFFFFFC
FFFFFFFFFFFFFFFC
FFFFFFFFFFFFFFFC
FFFFFFFFFFFFFFFC
FFFFFFFFFFFFFFFC
FFFFFFFFFFFFFFFC
FFFFFFFFFFFFFFFC
0FFFFFFFFFFFFF80
0FFFFFFFFFFFFF80
0FFFFFFFFFFFFF80
0FFFFFFFFFFFFF80
0FFFFFFFFFFFFF80
00FFFFFFFFFFF800
00FFFFFFFFFFF800
00FFFFFFFFFFF800
00FFFFFFFFFFF800
ENDCHAR
STARTCHAR one
ENCODING 49
SWIDTH 647 0
DWIDTH 49 0
BBX 40 62 1 0
BITMAP
0FFFFFFFE0
0FFFFFFFE0
0FFFFFFFE0
0FFFFFFFE0
0FFFFFFFE0
F007FFFFFF
F007FFFFFF
F007FFFFFF
F007FFFFFF
F007FFFFFF
F0FFFFFFFF
F0FFFFFFFF
F0FFFFFFFF
F0FFFFFFFF
0FFFFFFFFF
0FFFFFFFFF
0FFFFFFFFF
0FFFFFFFFF
00FFFFFFFF
00FFFFFFFF
00FFFFFFFF
00FFFFFFFF
00FFFFFFFF
00FFFFFFFF
00FFFFFFFF
00FFFFFFFF
00FFFFFFFF
00FFFFFFFF
00FFFFFFFF
00FFFFFFFF
00FFFFFFFF
00FFFFFFFF
00FFFFFFFF
00FFFFFFFF
00FFFFFFFF
00FFFFFFFF
00FFFFFFFF
00FFFFFFFF
00FFFFFFFF
00FFFFFFFF
00FFFFFFFF
00FFFFFFFF
00FFFFFFFF
00FFFFFFFF
00FFFFFFFF
00FFFFFFFF
00FFFFFFFF
00FFFFFFFF
00FFFFFFFF
00FFFFFFFF
00FFFFFFFF
00FFFFFFFF
00FFFFFFFF
00FFFFFFFF
00FFFFFFFF
00FFFFFFFF
00FFFFFFFF
00FFFFFFFF
0007FFFFE0
0007FFFFE0
0007FFFFE0
0007FFFFE0
ENDCHAR
STARTCHAR two
ENCODING 50
SWIDTH 941 0
DWIDTH 71 0
BBX 62 62 1 0
BITMAP
0FFFFFFFFFFFF800
0FFFFFFFFFFFF800
0FFFFFFFFFFFF800
0FFFFFFFFFFFF800
0FFFFFFFFFFFF800
F007FFFFFFFFFF80
F007FFFFFFFFFF80
F007FFFFFFFFFF80
F007FFFFFFFFFF80
F007FFFFFFFFFF80
F0FFFFFFFFFFFFFC
F0FFFFFFFFFFFFFC
F0FFFFFFFFFFFFFC
F0FFFFFFFFFFFFFC
0FFFFFFFFFFFFFFC
0FFFFFFFFFFFFFFC
0FFFFFFFFFFFFFFC
0FFFFFFFFFFFFFFC
0000000000FFFFFC
0000000000FFFFFC
0000000000FFFFFC
0000000000FFFFFC
0000000000FFFFFC
00FFFFFFFFFFFFFC
00FFFFFFFFFFFFFC
00FFFFFFFFFFFFFC
00FFFFFFFFFFFFFC
0FFFFFFFFFFFFF80
0FFFFFFFFFFFFF80
0FFFFFFFFFFFFF80
0FFFFFFFFFFFFF80
FFFFFFFFFFFFF800
FFFFFFFFFFFFF800
FFFFFFFFFFFFF800
FFFFFFFFFFFFF800
FFFFFFFE00000000
FFFFFFFE00000000
FFFFFFFE00000000
FFFFFFFE00000000
FFFFFFFE00000000
FFFFFFFFFFFFFF80
FFFFFFFFFFFFFF80
FFFFFFFFFFFFFF80
FFFFFFFFFFFFFF80
FFFFFFFFFFFFFFFC
FFFFFFFFFFFFFFFC
FFFFFFFFFFFFFFFC
FFFFFFFFFFFFFFFC
FFFFFFFFFFFFFFFC
FFFFFFFFFFFFFFFC
FFFFFFFFFFFFFFFC
FFFFFFFFFFFFFFFC
FFFFFFFFFFFFFFFC
FFFFFFFFFFFFFFFC
FFFFFFFFFFFFFFFC
FFFFFFFFFFFFFFFC
FFFFFFFFFFFFFFFC
FFFFFFFFFFFFFFFC
0FFFFFFFFFFFFF80
0FFFFFFFFFFFFF80
0FFFFFFFFFFFFF80
0FFFFFFFFFFFFF80
ENDCHAR
STARTCHAR three
ENCODING 51
SWIDTH 941 0
DWIDTH 71 0
BBX 62 62 1 0
BITMAP
00FFFFFFFFFFF800
00FFFFFFFFFFF800
00FFFFFFFFFFF800
00FFFFFFFFFFF800
00FFFFFFFFFFF800
0007FFFFFFFFFF80
0007FFFFFFFFFF80
0007FFFFFFFFFF80
0007FFFFFFFFFF80
0007FFFFFFFFFF80
F0FFFFFFFFFFFFFC
F0FFFFFFFFFFFFFC
F0FFFFFFFFFFFFFC
0FFFFFFFFFFFFFFC
0FFFFFFFFFFFFFFC
0FFFFFFFFFFFFFFC
0FFFFFFFFFFFFFFC
0FFFFFFFFFFFFFFC
00000000000FFFFC
00000000000FFFFC
00000000000FFFFC
00000000000FFFFC
00000000000FFFFC
00FFFFFFFFFFFFFC
00FFFFFFFFFFFFFC
00FFFFFFFFFFFFFC
00FFFFFFFFFFFFFC
0FFFFFFFFFFFFFFC
0FFFFFFFFFFFFFFC
0FFFFFFFFFFFFFFC
0FFFFFFFFFFFFFFC
00FFFFFFFFFFFFFC
00FFFFFFFFFFFFFC
00FFFFFFFFFFFFFC
00FFFFFFFFFFFFFC
00000000000FFFFC
00000000000FFFFC
00000000000FFFFC
00000000000FFFFC
00000000000FFFFC
0FFFFFFFFFFFFFFC
0FFFFFFFFFFFFFFC
0FFFFFFFFFFFFFFC
0FFFFFFFFFFFFFFC
FFFFFFFFFFFFFFFC
FFFFFFFFFFFFFFFC
FFFFFFFFFFFFFFFC
FFFFFFFFFFFFFFFC
FFFFFFFFFFFFFFFC
FFFFFFFFFFFFFFFC
FFFFFFFFFFFFFFFC
FFFFFFFFFFFFFFFC
FFFFFFFFFFFFFFFC
0FFFFFFFFFFFFF80
0FFFFFFFFFFFFF80
0FFFFFFFFFFFFF80
0FFFFFFFFFFFFF80
0FFFFFFFFFFFFF80
00FFFFFFFFFFF800
00FFFFFFFFFFF800
00FFFFFFFFFFF800
00FFFFFFFFFFF800
ENDCHAR
STARTCHAR four
ENCODING 52
SWIDTH 941 0
DWIDTH 71 0
BBX 62 62 1 0
BITMAP
0FFFFC003FFF8000
0FFFFC003FFF8000
0FFFFC003FFF8000
0FFFFC003FFF8000
0FFFFC003FFF8000
F007FFC3FFFFF800
F007FFC3FFFFF800
F007FFC3FFFFF800
F007FFC3FFFFF800
F007FFC3FFFFF800
F0FFFFC3FFFFF800
F0FFFFC3FFFFF800
F0FFFFC3FFFFF800
F0FFFFC3FFFFF800
FFFFFFC3FFFFF800
FFFFFFC3FFFFF800
FFFFFFC3FFFFF800
FFFFFFC3FFFFF800
FFFFFFC3FFFFF800
FFFFFFC3FFFFF800
FFFFFFC3FFFFF800
FFFFFFC3FFFFF800
FFFFFFC3FFFFF800
FFFFFFC3FFFFF800
FFFFFFC3FFFFF800
FFFFFFC3FFFFF800
FFFFFFC3FFFFF800
FFFFFFC3FFFFF800
FFFFFFC3FFFFF800
FFFFFFC3FFFFF800
FFFFFFC3FFFFF800
FFFFFFFFFFFFFF80
FFFFFFFFFFFFFF80
FFFFFFFFFFFFFF80
FFFFFFFFFFFFFF80
FFFFFFFFFFFFFF80
FFFFFFFFFFFFFFFC
FFFFFFFFFFFFFFFC
FFFFFFFFFFFFFFFC
FFFFFFFFFFFFFFFC
0FFFFFFFFFFFFFFC
0FFFFFFFFFFFFFFC
0FFFFFFFFFFFFFFC
0FFFFFFFFFFFFFFC
00FFFFFFFFFFFF80
00FFFFFFFFFFFF80
00FFFFFFFFFFFF80
00FFFFFFFFFFFF80
00FFFFFFFFFFFF80
00000003FFFFF800
00000003FFFFF800
00000003FFFFF800
00000003FFFFF800
00000003FFFFF800
00000003FFFFF800
00000003FFFFF800
00000003FFFFF800
00000003FFFFF800
000000003FFF8000
000000003FFF8000
000000003FFF8000
000000003FFF8000
ENDCHAR
STARTCHAR five
ENCODING 53
SWIDTH 941 0
DWIDTH 71 0
BBX 62 62 1 0
BITMAP
0FFFFFFFFFFFFF80
0FFFFFFFFFFFFF80
0FFFFFFFFFFFFF80
0FFFFFFFFFFFFF80
0FFFFFFFFFFFFF80
F007FFFFFFFFFFFC
F007FFFFFFFFFFFC
F007FFFFFFFFFFFC
F007FFFFFFFFFFFC
F007FFFFFFFFFFFC
F0FFFFFFFFFFFFFC
F0FFFFFFFFFFFFFC
F0FFFFFFFFFFFFFC
F0FFFFFFFFFFFFFC
FFFFFFFFFFFFFF80
FFFFFFFFFFFFFF80
FFFFFFFFFFFFFF80
FFFFFFFFFFFFFF80
FFFFFFFE00000000
FFFFFFFE00000000
FFFFFFFE00000000
FFFFFFFE00000000
FFFFFFFE00000000
FFFFFFFFFFFFF800
FFFFFFFFFFFFF800
FFFFFFFFFFFFF800
FFFFFFFFFFFFF800
FFFFFFFFFFFFFF80
FFFFFFFFFFFFFF80
FFFFFFFFFFFFFF80
FFFFFFFFFFFFFF80
FFFFFFFFFFFFFF80
0FFFFFFFFFFFFFFC
0FFFFFFFFFFFFFFC
0FFFFFFFFFFFFFFC
0000000000FFFFFC
0000000000FFFFFC
0000000000FFFFFC
0000000000FFFFFC
0000000000FFFFFC
0FFFFFFFFFFFFFFC
0FFFFFFFFFFFFFFC
0FFFFFFFFFFFFFFC
0FFFFFFFFFFFFFFC
FFFFFFFFFFFFFFFC
FFFFFFFFFFFFFFFC
FFFFFFFFFFFFFFFC
FFFFFFFFFFFFFFFC
FFFFFFFFFFFFFFFC
FFFFFFFFFFFFFFFC
FFFFFFFFFFFFFFFC
FFFFFFFFFFFFFFFC
FFFFFFFFFFFFFFFC
FFFFFFFFFFFFFF80
FFFFFFFFFFFFFF80
FFFFFFFFFFFFFF80
FFFFFFFFFFFFFF80
FFFFFFFFFFFFFF80
0FFFFFFFFFFFF800
0FFFFFFFFFFFF800
0FFFFFFFFFFFF800
0FFFFFFFFFFFF800
ENDCHAR
STARTCHAR six
ENCODING 54
SWIDTH 941 0
DWIDTH 71 0
BBX 62 62 1 0
BITMAP
00FFFFFFFFFFF800
00FFFFFFFFFFF800
00FFFFFFFFFFF800
00FFFFFFFFFFF800
0007FFFFFFFFFF80
0007FFFFFFFFFF80
0007FFFFFFFFFF80
0007FFFFFFFFFF80
0007FFFFFFFFFF80
F0FFFFFFFFFFF800
F0FFFFFFFFFFF800
F0FFFFFFFFFFF800
F0FFFFFFFFFFF800
FFFFFFFE00000000
FFFFFFFE00000000
FFFFFFFE00000000
FFFFFFFE00000000
FFFFFFFE00000000
FFFFFFFE00000000
FFFFFFFE00000000
FFFFFFFE00000000
FFFFFFFE00000000
FFFFFFFFFFFFF800
FFFFFFFFFFFFF800
FFFFFFFFFFFFF800
FFFFFFFFFFFFF800
FFFFFFFFFFFFFF80
FFFFFFFFFFFFFF80
FFFFFFFFFFFFFF80
FFFFFFFFFFFFFF80
FFFFFFFFFFFFFF80
FFFFFFFFFFFFFFFC
FFFFFFFFFFFFFFFC
FFFFFFFFFFFFFFFC
FFFFFFFFFFFFFFFC
FFFFFFFE000FFFFC
FFFFFFFE000FFFFC
FFFFFFFE000FFFFC
FFFFFFFE000FFFFC
FFFFFFFE000FFFFC
FFFFFFFE000FFFFC
FFFFFFFE000FFFFC
FFFFFFFE000FFFFC
FFFFFFFE000FFFFC
FFFFFFFFFFFFFFFC
FFFFFFFFFFFFFFFC
FFFFFFFFFFFFFFFC
FFFFFFFFFFFFFFFC
FFFFFFFFFFFFFFFC
FFFFFFFFFFFFFFFC
FFFFFFFFFFFFFFFC
FFFFFFFFFFFFFFFC
FFFFFFFFFFFFFFFC
0FFFFFFFFFFFFF80
0FFFFFFFFFFFFF80
0FFFFFFFFFFFFF80
0FFFFFFFFFFFFF80
0FFFFFFFFFFFFF80
00FFFFFFFFFFF800
00FFFFFFFFFFF800
00FFFFFFFFFFF800
00FFFFFFFFFFF800
ENDCHAR
STARTCHAR seven
ENCODING 55
SWIDTH 941 0
DWIDTH 71 0
BBX 62 62 1 0
BITMAP
0FFFFFFFFFFFFF80
0FFFFFFFFFFFFF80
0FFFFFFFFFFFFF80
0FFFFFFFFFFFFF80
0FFFFFFFFFFFFF80
F007FFFFFFFFFFFC
F007FFFFFFFFFFFC
F007FFFFFFFFFFFC
F007FFFFFFFFFFFC
F007FFFFFFFFFFFC
F0FFFFFFFFFFFFFC
F0FFFFFFFFFFFFFC
F0FFFFFFFFFFFFFC
F0FFFFFFFFFFFFFC
0FFFFFFFFFFFFFFC
0FFFFFFFFFFFFFFC
0FFFFFFFFFFFFFFC
0FFFFFFFFFFFFFFC
00000001FFFFFFFC
00000001FFFFFFFC
00000001FFFFFFFC
00000001FFFFFFFC
00000001FFFFFFFC
0000003FFFFFFF80
0000003FFFFFFF80
0000003FFFFFFF80
0000003FFFFFFF80
000003FFFFFFF800
000003FFFFFFF800
000003FFFFFFF800
000003FFFFFFF800
000003FFFFFF8000
000003FFFFFF8000
000003FFFFFF8000
000003FFFFFF8000
000003FFFFFF8000
00003FFFFFF00000
00003FFFFFF00000
00003FFFFFF00000
00003FFFFFF00000
00003FFFFFF00000
00003FFFFFF00000
00003FFFFFF00000
00003FFFFFF00000
00003FFFFFF00000
00003FFFFFF00000
00003FFFFFF00000
00003FFFFFF00000
00003FFFFFF00000
00003FFFFFF00000
00003FFFFFF00000
00003FFFFFF00000
00003FFFFFF00000
00003FFFFFF00000
00003FFFFFF00000
00003FFFFFF00000
00003FFFFFF00000
00003FFFFFF00000
000003FFFF000000
000003FFFF000000
000003FFFF000000
000003FFFF000000
ENDCHAR
STARTCHAR eight
ENCODING 56
SWIDTH 941 0
DWIDTH 71 0
BBX 62 62 1 0
BITMAP
00FFFFFFFFFFF800
00FFFFFFFFFFF800
00FFFFFFFFFFF800
00FFFFFFFFFFF800
00FFFFFFFFFFF800
0007FFFFFFFFFF80
0007FFFFFFFFFF80
0007FFFFFFFFFF80
0007FFFFFFFFFF80
0007FFFFFFFFFF80
F0FFFFFFFFFFFFFC
F0FFFFFFFFFFFFFC
F0FFFFFFFFFFFFFC
FFFFFFFE000FFFFC
FFFFFFFE000FFFFC
FFFFFFFE000FFFFC
FFFFFFFE000FFFFC
FFFFFFFE000FFFFC
FFFFFFFE000FFFFC
FFFFFFFE000FFFFC
FFFFFFFE000FFFFC
FFFFFFFE000FFFFC
FFFFFFFFFFFFFFFC
FFFFFFFFFFFFFFFC
FFFFFFFFFFFFFFFC
FFFFFFFFFFFFFFFC
FFFFFFFFFFFFFFFC
0FFFFFFFFFFFFF80
0FFFFFFFFFFFFF80
0FFFFFFFFFFFFF80
0FFFFFFFFFFFFF80
0FFFFFFFFFFFFF80
FFFFFFFFFFFFFFFC
FFFFFFFFFFFFFFFC
FFFFFFFFFFFFFFFC
FFFFFFFE000FFFFC
FFFFFFFE000FFFFC
FFFFFFFE000FFFFC
FFFFFFFE000FFFFC
FFFFFFFE000FFFFC
FFFFFFFE000FFFFC
FFFFFFFE000FFFFC
FFFFFFFE000FFFFC
FFFFFFFE000FFFFC
FFFFFFFFFFFFFFFC
FFFFFFFFFFFFFFFC
FFFFFFFFFFFFFFFC
FFFFFFFFFFFFFFFC
FFFFFFFFFFFFFFFC
FFFFFFFFFFFFFFFC
FFFFFFFFFFFFFFFC
FFFFFFFFFFFFFFFC
FFFFFFFFFFFFFFFC
0FFFFFFFFFFFFF80
0FFFFFFFFFFFFF80
0FFFFFFFFFFFFF80
0FFFFFFFFFFFFF80
0FFFFFFFFFFFFF80
00FFFFFFFFFFF800
00FFFFFFFFFFF800
00FFFFFFFFFFF800
00FFFFFFFFFFF800
ENDCHAR
STARTCHAR nine
ENCODING 57
SWIDTH 941 0
DWIDTH 71 0
BBX 62 62 1 0
BITMAP
00FFFFFFFFFFF800
00FFFFFFFFFFF800
00FFFFFFFFFFF800
00FFFFFFFFFFF800
00FFFFFFFFFFF800
0007FFFFFFFFFF80
0007FFFFFFFFFF80
0007FFFFFFFFFF80
0007FFFFFFFFFF80
0007FFFFFFFFFF80
F0FFFFFFFFFFFFFC
F0FFFFFFFFFFFFFC
F0FFFFFFFFFFFFFC
FFFFFFFE000FFFFC
FFFFFFFE000FFFFC
FFFFFFFE000FFFFC
FFFFFFFE000FFFFC
FFFFFFFE000FFFFC
FFFFFFFE000FFFFC
FFFFFFFE000FFFFC
FFFFFFFE000FFFFC
FFFFFFFE000FFFFC
FFFFFFFFFFFFFFFC
FFFFFFFFFFFFFFFC
FFFFFFFFFFFFFFFC
FFFFFFFFFFFFFFFC
FFFFFFFFFFFFFFFC
0FFFFFFFFFFFFFFC
0FFFFFFFFFFFFFFC
0FFFFFFFFFFFFFFC
0FFFFFFFFFFFFFFC
00FFFFFFFFFFFF80
00FFFFFFFFFFFF80
00FFFFFFFFFFFF80
00FFFFFFFFFFFF80
00FFFFFFFFFFFF80
00000001FFFFFF80
00000001FFFFFF80
00000001FFFFFF80
00000001FFFFFF80
00000001FFFFFF80
0000003FFFFFF800
0000003FFFFFF800
0000003FFFFFF800
0000003FFFFFF800
000003FFFFFF8000
000003FFFFFF8000
000003FFFFFF8000
000003FFFFFF8000
00003FFFFFF00000
00003FFFFFF00000
00003FFFFFF00000
00003FFFFFF00000
00003FFFFFF00000
0007FFFFFF000000
0007FFFFFF000000
0007FFFFFF000000
0007FFFFFF000000
00003FFFE0000000
00003FFFE0000000
00003FFFE0000000
00003FFFE0000000
ENDCHAR
STARTCHAR colon
ENCODING 58
SWIDTH 411 0
DWIDTH 31 0
BBX 22 53 1 4
BITMAP
0FFFC0
0FFFC0
0FFFC0
0FFFC0
F007FC
F007FC
F007FC
F007FC
F007FC
F0FFFC
F0FFFC
F0FFFC
F0FFFC
FFFFFC
FFFFFC
FFFFFC
FFFFFC
0FFFC0
0FFFC0
0FFFC0
0FFFC0
0FFFC0
000000
000000
000000
000000
000000
000000
000000
000000
000000
0FFFC0
0FFFC0
0FFFC0
0FFFC0
FFFFFC
FFFFFC
FFFFFC
FFFFFC
FFFFFC
FFFFFC
FFFFFC
FFFFFC
FFFFFC
FFFFFC
FFFFFC
FFFFFC
FFFFFC
0FFFC0
0FFFC0
0FFFC0
0FFFC0
0FFFC0
ENDCHAR
STARTCHAR semicolon
ENCODING 59
SWIDTH 411 0
DWIDTH 31 0
BBX 22 61 1 -4
BITMAP
0FFFC0
0FFFC0
0FFFC0
0FFFC0
F007FC
F007FC
F007FC
F007FC
F007FC
F0FFFC
F0FFFC
F0FFFC
F0FFFC
FFFFFC
FFFFFC
FFFFFC
FFFFFC
0FFFC0
0FFFC0
0FFFC0
0FFFC0
0FFFC0
000000
000000
000000
000000
000000
000000
000000
000000
000000
0FFFC0
0FFFC0
0FFFC0
0FFFC0
FFFFFC
FFFFFC
FFFFFC
FFFFFC
FFFFFC
FFFFFC
FFFFFC
FFFFFC
FFFFFC
FFFFFC
FFFFFC
FFFFFC
FFFFFC
FFFFFC
FFFFFC
FFFFFC
FFFFFC
FFFFFC
FFFFFC
FFFFFC
FFFFFC
FFFFFC
0FFFC0
0FFFC0
0FFFC0
0FFFC0
ENDCHAR
STARTCHAR less
ENCODING 60
SWIDTH 647 0
DWIDTH 49 0
BBX 40 62 1 0
BITMAP
000003FFE0
000003FFE0
000003FFE0
000003FFE0
000003FFE0
0000001FFF
0000001FFF
0000001FFF
0000001FFF
000783FFFF
000783FFFF
000783FFFF
000783FFFF
000783FFFF
007FFFFFE0
007FFFFFE0
007FFFFFE0
007FFFFFE0
0FFFFFFE00
0FFFFFFE00
0FFFFFFE00
0FFFFFFE00
FFFFFFE000
FFFFFFE000
FFFFFFE000
FFFFFFE000
FFFFFFE000
FFFFFC0000
FFFFFC0000
FFFFFC0000
FFFFFC0000
FFFFFC0000
FFFFFC0000
FFFFFC0000
FFFFFC0000
FFFFFC0000
FFFFFFE000
FFFFFFE000
FFFFFFE000
FFFFFFE000
0FFFFFFE00
0FFFFFFE00
0FFFFFFE00
0FFFFFFE00
007FFFFFE0
007FFFFFE0
007FFFFFE0
007FFFFFE0
007FFFFFE0
0007FFFFFF
0007FFFFFF
0007FFFFFF
0007FFFFFF
00007FFFFF
00007FFFFF
00007FFFFF
00007FFFFF
00007FFFFF
000003FFE0
000003FFE0
000003FFE0
000003FFE0
ENDCHAR
STARTCHAR equal
ENCODING 61
SWIDTH 823 0
DWIDTH 62 0
BBX 53 53 1 4
BITMAP
0FFFFFFFFFFF80
0FFFFFFFFFFF80
0FFFFFFFFFFF80
0FFFFFFFFFFF80
F007FFFFFFFFF8
F007FFFFFFFFF8
F007FFFFFFFFF8
F007FFFFFFFFF8
F007FFFFFFFFF8
F0FFFFFFFFFFF8
F0FFFFFFFFFFF8
F0FFFFFFFFFFF8
F0FFFFFFFFFFF8
FFFFFFFFFFFFF8
FFFFFFFFFFFFF8
FFFFFFFFFFFFF8
FFFFFFFFFFFFF8
FFFFFFFFFFFFF8
0FFFFFFFFFFF80
0FFFFFFFFFFF80
0FFFFFFFFFFF80
0FFFFFFFFFFF80
00000000000000
00000000000000
00000000000000
00000000000000
00000000000000
00000000000000
00000000000000
00000000000000
00000000000000
0FFFFFFFFFFF80
0FFFFFFFFFFF80
0FFFFFFFFFFF80
0FFFFFFFFFFF80
FFFFFFFFFFFFF8
FFFFFFFFFFFFF8
FFFFFFFFFFFFF8
FFFFFFFFFFFFF8
FFFFFFFFFFFFF8
FFFFFFFFFFFFF8
FFFFFFFFFFFFF8
FFFFFFFFFFFFF8
FFFFFFFFFFFFF8
FFFFFFFFFFFFF8
FFFFFFFFFFFFF8
FFFFFFFFFFFFF8
FFFFFFFFFFFFF8
0FFFFFFFFFFF80
0FFFFFFFFFFF80
0FFFFFFFFFFF80
0FFFFFFFFFFF80
0FFFFFFFFFFF80
ENDCHAR
STARTCHAR greater
ENCODING 62
SWIDTH 647 0
DWIDTH 49 0
BBX 40 62 1 0
BITMAP
0FFFC00000
0FFFC00000
0FFFC00000
0FFFC00000
0FFFC00000
F007FC0000
F007FC0000
F007FC0000
F007FC0000
F007FC0000
F0FFFFC000
F0FFFFC000
F0FFFFC000
F0FFFFC000
0FFFFFFE00
0FFFFFFE00
0FFFFFFE00
0FFFFFFE00
00FFFFFFE0
00FFFFFFE0
00FFFFFFE0
00FFFFFFE0
0007FFFFE0
0007FFFFFF
0007FFFFFF
0007FFFFFF
0007FFFFFF
00003FFFFF
00003FFFFF
00003FFFFF
00003FFFFF
00003FFFFF
00003FFFFF
00003FFFFF
00003FFFFF
00003FFFFF
0007FFFFFF
0007FFFFFF
0007FFFFFF
0007FFFFFF
00FFFFFFE0
00FFFFFFE0
00FFFFFFE0
00FFFFFFE0
00FFFFFE00
0FFFFFFE00
0FFFFFFE00
0FFFFFFE00
0FFFFFFE00
FFFFFFC000
FFFFFFC000
FFFFFFC000
FFFFFFC000
FFFFFC0000
FFFFFC0000
FFFFFC0000
FFFFFC0000
FFFFFC0000
0FFFC00000
0FFFC00000
0FFFC00000
0FFFC00000
ENDCHAR
STARTCHAR question
ENCODING 63
SWIDTH 941 0
DWIDTH 71 0
BBX 62 62 1 0
BITMAP
0FFFFFFFFFFFF800
0FFFFFFFFFFFF800
0FFFFFFFFFFFF800
0FFFFFFFFFFFF800
0FFFFFFFFFFFF800
F007FFFFFFFFFF80
F007FFFFFFFFFF80
F007FFFFFFFFFF80
F007FFFFFFFFFF80
F007FFFFFFFFFF80
F0FFFFFFFFFFFFFC
F0FFFFFFFFFFFFFC
F0FFFFFFFFFFFFFC
F0FFFFFFFFFFFFFC
0FFFFFFFFFFFFFFC
0FFFFFFFFFFFFFFC
0FFFFFFFFFFFFFFC
0FFFFFFFFFFFFFFC
0000000000FFFFFC
0000000000FFFFFC
0000000000FFFFFC
0000000000FFFFFC
0000000000FFFFFC
000003FFFFFFFFFC
000003FFFFFFFFFC
000003FFFFFFFFFC
000003FFFFFFFFFC
00003FFFFFFFFF80
00003FFFFFFFFF80
00003FFFFFFFFF80
00003FFFFFFFFF80
000003FFFFFFF800
000003FFFFFFF800
000003FFFFFFF800
000003FFFFFFF800
0000000000000000
0000000000000000
0000000000000000
0000000000000000
0000000000000000
000003FFE0000000
000003FFE0000000
000003FFE0000000
000003FFE0000000
00003FFFFF000000
00003FFFFF000000
00003FFFFF000000
00003FFFFF000000
00003FFFFF000000
00003FFFFF000000
00003FFFFF000000
00003FFFFF000000
00003FFFFF000000
00003FFFFF000000
00003FFFFF000000
00003FFFFF000000
00003FFFFF000000
00003FFFFF000000
000003FFE0000000
000003FFE0000000
000003FFE0000000
000003FFE0000000
ENDCHAR
STARTCHAR at
ENCODING 64
SWIDTH 823 0
DWIDTH 62 0
BBX 1 1 0 0
BITMAP
00
ENDCHAR
STARTCHAR A
ENCODING 65
SWIDTH 941 0
DWIDTH 71 0
BBX 62 62 1 0
BITMAP
00FFFFFFFFFF8000
00FFFFFFFFFF8000
00FFFFFFFFFF8000
00FFFFFFFFFF8000
00FFFFFFFFFF8000
0007FFFFFFFFF800
0007FFFFFFFFF800
0007FFFFFFFFF800
0007FFFFFFFFF800
0007FFFFFFFFF800
F0FFFFFFFFFFFF80
F0FFFFFFFFFFFF80
F0FFFFFFFFFFFF80
FFFFFFFE000FFFFC
FFFFFFFE000FFFFC
FFFFFFFE000FFFFC
FFFFFFFE000FFFFC
FFFFFFFE000FFFFC
FFFFFFFE000FFFFC
FFFFFFFE000FFFFC
FFFFFFFE000FFFFC
FFFFFFFE000FFFFC
FFFFFFFFFFFFFFFC
FFFFFFFFFFFFFFFC
FFFFFFFFFFFFFFFC
FFFFFFFFFFFFFFFC
FFFFFFFFFFFFFFFC
FFFFFFFFFFFFFFFC
FFFFFFFFFFFFFFFC
FFFFFFFFFFFFFFFC
FFFFFFFFFFFFFFFC
FFFFFFFE000FFFFC
FFFFFFFE000FFFFC
FFFFFFFE000FFFFC
FFFFFFFE000FFFFC
FFFFFFFE000FFFFC
FFFFFFFE000FFFFC
FFFFFFFE000FFFFC
FFFFFFFE000FFFFC
FFFFFFFE000FFFFC
FFFFFFFE000FFFFC
FFFFFFFE000FFFFC
FFFFFFFE000FFFFC
FFFFFFFE000FFFFC
FFFFFFFE000FFFFC
FFFFFFFE000FFFFC
FFFFFFFE000FFFFC
FFFFFFFE000FFFFC
FFFFFFFE000FFFFC
FFFFFFFE000FFFFC
FFFFFFFE000FFFFC
FFFFFFFE000FFFFC
FFFFFFFE000FFFFC
FFFFFFFE000FFFFC
FFFFFFFE000FFFFC
FFFFFFFE000FFFFC
FFFFFFFE000FFFFC
FFFFFFFE000FFFFC
0FFFFFE000007F80
0FFFFFE000007F80
0FFFFFE000007F80
0FFFFFE000007F80
ENDCHAR
STARTCHAR B
ENCODING 66
SWIDTH 941 0
DWIDTH 71 0
BBX 62 62 1 0
BITMAP
0FFFFFFFFFFFF800
0FFFFFFFFFFFF800
0FFFFFFFFFFFF800
0FFFFFFFFFFFF800
F007FFFFFFFFFF80
F007FFFFFFFFFF80
F007FFFFFFFFFF80
F007FFFFFFFFFF80
F007FFFFFFFFFF80
F0FFFFFFFFFFFFFC
F0FFFFFFFFFFFFFC
F0FFFFFFFFFFFFFC
F0FFFFFFFFFFFFFC
FFFFFFFE000FFFFC
FFFFFFFE000FFFFC
FFFFFFFE000FFFFC
FFFFFFFE000FFFFC
FFFFFFFE000FFFFC
FFFFFFFE000FFFFC
FFFFFFFE000FFFFC
FFFFFFFE000FFFFC
FFFFFFFE000FFFFC
FFFFFFFFFFFFFFFC
FFFFFFFFFFFFFFFC
FFFFFFFFFFFFFFFC
FFFFFFFFFFFFFFFC
FFFFFFFFFFFFFFFC
FFFFFFFFFFFFFF80
FFFFFFFFFFFFFF80
FFFFFFFFFFFFFF80
FFFFFFFFFFFFFF80
FFFFFFFFFFFFFF80
FFFFFFFFFFFFFFFC
FFFFFFFFFFFFFFFC
FFFFFFFFFFFFFFFC
FFFFFFFE000FFFFC
FFFFFFFE000FFFFC
FFFFFFFE000FFFFC
FFFFFFFE000FFFFC
FFFFFFFE000FFFFC
FFFFFFFE000FFFFC
FFFFFFFE000FFFFC
FFFFFFFE000FFFFC
FFFFFFFE000FFFFC
FFFFFFFFFFFFFFFC
FFFFFFFFFFFFFFFC
FFFFFFFFFFFFFFFC
FFFFFFFFFFFFFFFC
FFFFFFFFFFFFFFFC
FFFFFFFFFFFFFFFC
FFFFFFFFFFFFFFFC
FFFFFFFFFFFFFFFC
FFFFFFFFFFFFFFFC
FFFFFFFFFFFFFF80
FFFFFFFFFFFFFF80
FFFFFFFFFFFFFF80
FFFFFFFFFFFFFF80
FFFFFFFFFFFFFF80
0FFFFFFFFFFFF800
0FFFFFFFFFFFF800
0FFFFFFFFFFFF800
0FFFFFFFFFFFF800
ENDCHAR
STARTCHAR C
ENCODING 67
SWIDTH 941 0
DWIDTH 71 0
BBX 62 62 1 0
BITMAP
00FFFFFFFFFFFF80
00FFFFFFFFFFFF80
00FFFFFFFFFFFF80
00FFFFFFFFFFFF80
00FFFFFFFFFFFF80
0007FFFFFFFFFFFC
0007FFFFFFFFFFFC
0007FFFFFFFFFFFC
0007FFFFFFFFFFFC
0007FFFFFFFFFF80
F0FFFFFFFFFFFF80
F0FFFFFFFFFFFF80
F0FFFFFFFFFFFF80
FFFFFFFE00000000
FFFFFFFE00000000
FFFFFFFE00000000
FFFFFFFE00000000
FFFFFFFE00000000
FFFFFFFE00000000
FFFFFFFE00000000
FFFFFFFE00000000
FFFFFFFE00000000
FFFFFFFE00000000
FFFFFFFE00000000
FFFFFFFE00000000
FFFFFFFE00000000
FFFFFFFE00000000
FFFFFFFE00000000
FFFFFFFE00000000
FFFFFFFE00000000
FFFFFFFE00000000
FFFFFFFE00000000
FFFFFFFE00000000
FFFFFFFE00000000
FFFFFFFE00000000
FFFFFFFE00000000
FFFFFFFE00000000
FFFFFFFE00000000
FFFFFFFE00000000
FFFFFFFE00000000
FFFFFFFE00000000
FFFFFFFE00000000
FFFFFFFE00000000
FFFFFFFE00000000
FFFFFFFFFFFFFF80
FFFFFFFFFFFFFF80
FFFFFFFFFFFFFF80
FFFFFFFFFFFFFF80
FFFFFFFFFFFFFF80
FFFFFFFFFFFFFFFC
FFFFFFFFFFFFFFFC
FFFFFFFFFFFFFFFC
FFFFFFFFFFFFFFFC
0FFFFFFFFFFFFFFC
0FFFFFFFFFFFFFFC
0FFFFFFFFFFFFFFC
0FFFFFFFFFFFFFFC
0FFFFFFFFFFFFFFC
00FFFFFFFFFFFF80
00FFFFFFFFFFFF80
00FFFFFFFFFFFF80
00FFFFFFFFFFFF80
ENDCHAR
STARTCHAR D
ENCODING 68
SWIDTH 941 0
DWIDTH 71 0
BBX 62 62 1 0
BITMAP
0FFFFFFFFFFF8000
0FFFFFFFFFFF8000
0FFFFFFFFFFF8000
0FFFFFFFFFFF8000
0FFFFFFFFFFF8000
F007FFFFFFFFF800
F007FFFFFFFFF800
F007FFFFFFFFF800
F007FFFFFFFFF800
F007FFFFFFFFF800
F0FFFFFFFFFFFF80
F0FFFFFFFFFFFF80
F0FFFFFFFFFFFF80
F0FFFFFFFFFFFF80
FFFFFFFE00FFFFFC
FFFFFFFE00FFFFFC
FFFFFFFE00FFFFFC
FFFFFFFE00FFFFFC
FFFFFFFE000FFFFC
FFFFFFFE000FFFFC
FFFFFFFE000FFFFC
FFFFFFFE000FFFFC
FFFFFFFE000FFFFC
FFFFFFFE000FFFFC
FFFFFFFE000FFFFC
FFFFFFFE000FFFFC
FFFFFFFE000FFFFC
FFFFFFFE000FFFFC
FFFFFFFE000FFFFC
FFFFFFFE000FFFFC
FFFFFFFE000FFFFC
FFFFFFFE000FFFFC
FFFFFFFE000FFFFC
FFFFFFFE000FFFFC
FFFFFFFE000FFFFC
FFFFFFFE000FFFFC
FFFFFFFE000FFFFC
FFFFFFFE000FFFFC
FFFFFFFE000FFFFC
FFFFFFFE000FFFFC
FFFFFFFE00FFFFFC
FFFFFFFE00FFFFFC
FFFFFFFE00FFFFFC
FFFFFFFE00FFFFFC
FFFFFFFFFFFFFFFC
FFFFFFFFFFFFFFFC
FFFFFFFFFFFFFFFC
FFFFFFFFFFFFFFFC
FFFFFFFFFFFFFFFC
FFFFFFFFFFFFFFFC
FFFFFFFFFFFFFFFC
FFFFFFFFFFFFFFFC
FFFFFFFFFFFFFFFC
FFFFFFFFFFFFFF80
FFFFFFFFFFFFFF80
FFFFFFFFFFFFFF80
FFFFFFFFFFFFFF80
FFFFFFFFFFFFFF80
0FFFFFFFFFFFF800
0FFFFFFFFFFFF800
0FFFFFFFFFFFF800
0FFFFFFFFFFFF800
ENDCHAR
STARTCHAR E
ENCODING 69
SWIDTH 941 0
DWIDTH 71 0
BBX 62 62 1 0
BITMAP
0FFFFFFFFFFFFF80
0FFFFFFFFFFFFF80
0FFFFFFFFFFFFF80
0FFFFFFFFFFFFF80
F007FFFFFFFFFFFC
F007FFFFFFFFFFFC
F007FFFFFFFFFFFC
F007FFFFFFFFFFFC
F007FFFFFFFFFFFC
F0FFFFFFFFFFFF80
F0FFFFFFFFFFFF80
F0FFFFFFFFFFFF80
F0FFFFFFFFFFFF80
FFFFFFFE00000000
FFFFFFFE00000000
FFFFFFFE00000000
FFFFFFFE00000000
FFFFFFFE00000000
FFFFFFFE00000000
FFFFFFFE00000000
FFFFFFFE00000000
FFFFFFFE00000000
FFFFFFFFFFFFFF80
FFFFFFFFFFFFFF80
FFFFFFFFFFFFFF80
FFFFFFFFFFFFFF80
FFFFFFFFFFFFFF80
FFFFFFFFFFFFFFFC
FFFFFFFFFFFFFFFC
FFFFFFFFFFFFFFFC
FFFFFFFFFFFFFFFC
FFFFFFFFFFFFFF80
FFFFFFFFFFFFFF80
FFFFFFFFFFFFFF80
FFFFFFFFFFFFFF80
FFFFFFFE00000000
FFFFFFFE00000000
FFFFFFFE00000000
FFFFFFFE00000000
FFFFFFFE00000000
FFFFFFFE00000000
FFFFFFFE00000000
FFFFFFFE00000000
FFFFFFFE00000000
FFFFFFFFFFFFFF80
FFFFFFFFFFFFFF80
FFFFFFFFFFFFFF80
FFFFFFFFFFFFFF80
FFFFFFFFFFFFFF80
FFFFFFFFFFFFFFFC
FFFFFFFFFFFFFFFC
FFFFFFFFFFFFFFFC
FFFFFFFFFFFFFFFC
FFFFFFFFFFFFFFFC
FFFFFFFFFFFFFFFC
FFFFFFFFFFFFFFFC
FFFFFFFFFFFFFFFC
FFFFFFFFFFFFFFFC
0FFFFFFFFFFFFF80
0FFFFFFFFFFFFF80
0FFFFFFFFFFFFF80
0FFFFFFFFFFFFF80
ENDCHAR
STARTCHAR F
ENCODING 70
SWIDTH 941 0
DWIDTH 71 0
BBX 62 62 1 0
BITMAP
0FFFFFFFFFFFFF80
0FFFFFFFFFFFFF80
0FFFFFFFFFFFFF80
0FFFFFFFFFFFFF80
F007FFFFFFFFFFFC
F007FFFFFFFFFFFC
F007FFFFFFFFFFFC
F007FFFFFFFFFFFC
F007FFFFFFFFFFFC
F0FFFFFFFFFFFF80
F0FFFFFFFFFFFF80
F0FFFFFFFFFFFF80
F0FFFFFFFFFFFF80
FFFFFFFE00000000
FFFFFFFE00000000
FFFFFFFE00000000
FFFFFFFE00000000
FFFFFFFE00000000
FFFFFFFE00000000
FFFFFFFE00000000
FFFFFFFE00000000
FFFFFFFE00000000
FFFFFFFFFFFFFF80
FFFFFFFFFFFFFF80
FFFFFFFFFFFFFF80
FFFFFFFFFFFFFF80
FFFFFFFFFFFFFF80
FFFFFFFFFFFFFFFC
FFFFFFFFFFFFFFFC
FFFFFFFFFFFFFFFC
FFFFFFFFFFFFFFFC
FFFFFFFFFFFFFF80
FFFFFFFFFFFFFF80
FFFFFFFFFFFFFF80
FFFFFFFFFFFFFF80
FFFFFFFFFFFFFF80
FFFFFFFE00000000
FFFFFFFE00000000
FFFFFFFE00000000
FFFFFFFE00000000
FFFFFFFE00000000
FFFFFFFE00000000
FFFFFFFE00000000
FFFFFFFE00000000
FFFFFFFE00000000
FFFFFFFE00000000
FFFFFFFE00000000
FFFFFFFE00000000
FFFFFFFE00000000
FFFFFFFE00000000
FFFFFFFE00000000
FFFFFFFE00000000
FFFFFFFE00000000
FFFFFFFE00000000
FFFFFFFE00000000
FFFFFFFE00000000
FFFFFFFE00000000
FFFFFFFE00000000
0FFFFFC000000000
0FFFFFC000000000
0FFFFFC000000000
0FFFFFC000000000
ENDCHAR
STARTCHAR G
ENCODING 71
SWIDTH 941 0
DWIDTH 71 0
BBX 62 62 1 0
BITMAP
00FFFFFFFFFFFF80
00FFFFFFFFFFFF80
00FFFFFFFFFFFF80
00FFFFFFFFFFFF80
00FFFFFFFFFFFF80
0007FFFFFFFFFFFC
0007FFFFFFFFFFFC
0007FFFFFFFFFFFC
0007FFFFFFFFFFFC
0007FFFFFFFFFF80
F0FFFFFFFFFFFF80
F0FFFFFFFFFFFF80
F0FFFFFFFFFFFF80
FFFFFFFE00000000
FFFFFFFE00000000
FFFFFFFE00000000
FFFFFFFE00000000
FFFFFFFE00000000
FFFFFFFE00000000
FFFFFFFE00000000
FFFFFFFE00000000
FFFFFFFE00000000
FFFFFFFE00FFFF80
FFFFFFFE00FFFF80
FFFFFFFE00FFFF80
FFFFFFFE00FFFF80
FFFFFFFE1FFFFFFC
FFFFFFFE1FFFFFFC
FFFFFFFE1FFFFFFC
FFFFFFFE1FFFFFFC
FFFFFFFE1FFFFFFC
FFFFFFFE00FFFFFC
FFFFFFFE00FFFFFC
FFFFFFFE00FFFFFC
FFFFFFFE00FFFFFC
FFFFFFFE000FFFFC
FFFFFFFE000FFFFC
FFFFFFFE000FFFFC
FFFFFFFE000FFFFC
FFFFFFFE000FFFFC
FFFFFFFE000FFFFC
FFFFFFFE000FFFFC
FFFFFFFE000FFFFC
FFFFFFFE000FFFFC
FFFFFFFFFFFFFFFC
FFFFFFFFFFFFFFFC
FFFFFFFFFFFFFFFC
FFFFFFFFFFFFFFFC
FFFFFFFFFFFFFFFC
FFFFFFFFFFFFFFFC
FFFFFFFFFFFFFFFC
FFFFFFFFFFFFFFFC
FFFFFFFFFFFFFFFC
0FFFFFFFFFFFFF80
0FFFFFFFFFFFFF80
0FFFFFFFFFFFFF80
0FFFFFFFFFFFFF80
0FFFFFFFFFFFFF80
00FFFFFFFFFFF800
00FFFFFFFFFFF800
00FFFFFFFFFFF800
00FFFFFFFFFFF800
ENDCHAR
STARTCHAR H
ENCODING 72
SWIDTH 941 0
DWIDTH 71 0
BBX 62 62 1 0
BITMAP
0FFFFFE0000FFF80
0FFFFFE0000FFF80
0FFFFFE0000FFF80
0FFFFFE0000FFF80
0FFFFFE0000FFF80
F007FFFE00FFFFFC
F007FFFE00FFFFFC
F007FFFE00FFFFFC
F007FFFE00FFFFFC
F007FFFE00FFFFFC
F0FFFFFE00FFFFFC
F0FFFFFE00FFFFFC
F0FFFFFE00FFFFFC
F0FFFFFE00FFFFFC
FFFFFFFE00FFFFFC
FFFFFFFE00FFFFFC
FFFFFFFE00FFFFFC
FFFFFFFE00FFFFFC
FFFFFFFE00FFFFFC
FFFFFFFE00FFFFFC
FFFFFFFE00FFFFFC
FFFFFFFE00FFFFFC
FFFFFFFFFFFFFFFC
FFFFFFFFFFFFFFFC
FFFFFFFFFFFFFFFC
FFFFFFFFFFFFFFFC
FFFFFFFFFFFFFFFC
FFFFFFFFFFFFFFFC
FFFFFFFFFFFFFFFC
FFFFFFFFFFFFFFFC
FFFFFFFFFFFFFFFC
FFFFFFFFFFFFFFFC
FFFFFFFFFFFFFFFC
FFFFFFFFFFFFFFFC
FFFFFFFFFFFFFFFC
FFFFFFFFFFFFFFFC
FFFFFFFE00FFFFFC
FFFFFFFE00FFFFFC
FFFFFFFE00FFFFFC
FFFFFFFE00FFFFFC
FFFFFFFE00FFFFFC
FFFFFFFE00FFFFFC
FFFFFFFE00FFFFFC
FFFFFFFE00FFFFFC
FFFFFFFE00FFFFFC
FFFFFFFE00FFFFFC
FFFFFFFE00FFFFFC
FFFFFFFE00FFFFFC
FFFFFFFE00FFFFFC
FFFFFFFE00FFFFFC
FFFFFFFE00FFFFFC
FFFFFFFE00FFFFFC
FFFFFFFE00FFFFFC
FFFFFFFE00FFFFFC
FFFFFFFE00FFFFFC
FFFFFFFE00FFFFFC
FFFFFFFE00FFFFFC
FFFFFFFE00FFFFFC
0FFFFFE0000FFF80
0FFFFFE0000FFF80
0FFFFFE0000FFF80
0FFFFFE0000FFF80
ENDCHAR
STARTCHAR I
ENCODING 73
SWIDTH 529 0
DWIDTH 40 0
BBX 31 62 1 0
BITMAP
0FFFFFC0
0FFFFFC0
0FFFFFC0
0FFFFFC0
0FFFFFC0
F007FFFE
F007FFFE
F007FFFE
F007FFFE
F007FFFE
F0FFFFFE
F0FFFFFE
F0FFFFFE
F0FFFFFE
FFFFFFFE
FFFFFFFE
FFFFFFFE
FFFFFFFE
FFFFFFFE
FFFFFFFE
FFFFFFFE
FFFFFFFE
FFFFFFFE
FFFFFFFE
FFFFFFFE
FFFFFFFE
FFFFFFFE
FFFFFFFE
FFFFFFFE
FFFFFFFE
FFFFFFFE
FFFFFFFE
FFFFFFFE
FFFFFFFE
FFFFFFFE
FFFFFFFE
FFFFFFFE
FFFFFFFE
FFFFFFFE
FFFFFFFE
FFFFFFFE
FFFFFFFE
FFFFFFFE
FFFFFFFE
FFFFFFFE
FFFFFFFE
FFFFFFFE
FFFFFFFE
FFFFFFFE
FFFFFFFE
FFFFFFFE
FFFFFFFE
FFFFFFFE
FFFFFFFE
FFFFFFFE
FFFFFFFE
FFFFFFFE
FFFFFFFE
0FFFFFC0
0FFFFFC0
0FFFFFC0
0FFFFFC0
ENDCHAR
STARTCHAR J
ENCODING 74
SWIDTH 941 0
DWIDTH 71 0
BBX 62 62 1 0
BITMAP
000000000FFFFF80
000000000FFFFF80
000000000FFFFF80
000000000FFFFF80
000000000FFFFF80
00000001F007FFFC
00000001F007FFFC
00000001F007FFFC
00000001F007FFFC
00000001F007FFFC
00000001F0FFFFFC
00000001F0FFFFFC
00000001F0FFFFFC
00000001F0FFFFFC
00000001FFFFFFFC
00000001FFFFFFFC
00000001FFFFFFFC
00000001FFFFFFFC
00000001FFFFFFFC
00000001FFFFFFFC
00000001FFFFFFFC
00000001FFFFFFFC
00000001FFFFFFFC
00000001FFFFFFFC
00000001FFFFFFFC
00000001FFFFFFFC
00000001FFFFFFFC
0FFFC001FFFFFFFC
0FFFC001FFFFFFFC
0FFFC001FFFFFFFC
0FFFC001FFFFFFFC
FFFFFC01FFFFFFFC
FFFFFC01FFFFFFFC
FFFFFC01FFFFFFFC
FFFFFC01FFFFFFFC
FFFFFC01FFFFFFFC
FFFFFC01FFFFFFFC
FFFFFC01FFFFFFFC
FFFFFC01FFFFFFFC
FFFFFC01FFFFFFFC
FFFFFC01FFFFFFFC
FFFFFC01FFFFFFFC
FFFFFC01FFFFFFFC
FFFFFC01FFFFFFFC
FFFFFFFFFFFFFFFC
FFFFFFFFFFFFFFFC
FFFFFFFFFFFFFFFC
FFFFFFFFFFFFFFFC
FFFFFFFFFFFFFFFC
FFFFFFFFFFFFFFFC
FFFFFFFFFFFFFFFC
FFFFFFFFFFFFFFFC
FFFFFFFFFFFFFFFC
0FFFFFFFFFFFFF80
0FFFFFFFFFFFFF80
0FFFFFFFFFFFFF80
0FFFFFFFFFFFFF80
0FFFFFFFFFFFFF80
007FFFFFFFFFF800
007FFFFFFFFFF800
007FFFFFFFFFF800
007FFFFFFFFFF800
ENDCHAR
STARTCHAR K
ENCODING 75
SWIDTH 941 0
DWIDTH 71 0
BBX 62 62 1 0
BITMAP
0FFFFFE000007F80
0FFFFFE000007F80
0FFFFFE000007F80
0FFFFFE000007F80
0FFFFFE000007F80
F007FFFE000FFFFC
F007FFFE000FFFFC
F007FFFE000FFFFC
F007FFFE000FFFFC
F007FFFE000FFFFC
F0FFFFFE00FFFFFC
F0FFFFFE00FFFFFC
F0FFFFFE00FFFFFC
F0FFFFFE00FFFFFC
FFFFFFFE1FFFFFFC
FFFFFFFE1FFFFFFC
FFFFFFFE1FFFFFFC
FFFFFFFE1FFFFFFC
FFFFFFFFFFFFFF80
FFFFFFFFFFFFFF80
FFFFFFFFFFFFFF80
FFFFFFFFFFFFFF80
FFFFFFFFFFFFFF80
FFFFFFFFFFFFF800
FFFFFFFFFFFFF800
FFFFFFFFFFFFF800
FFFFFFFFFFFFF800
FFFFFFFFFFFF8000
FFFFFFFFFFFF8000
FFFFFFFFFFFF8000
FFFFFFFFFFFF8000
FFFFFFFFFFFF8000
FFFFFFFFFFFFF800
FFFFFFFFFFFFF800
FFFFFFFFFFFFF800
FFFFFFFFFFFFF800
FFFFFFFFFFFFFF80
FFFFFFFFFFFFFF80
FFFFFFFFFFFFFF80
FFFFFFFFFFFFFF80
FFFFFFFFFFFFFF80
FFFFFFFFFFFFFFFC
FFFFFFFFFFFFFFFC
FFFFFFFFFFFFFFFC
FFFFFFFE1FFFFFFC
FFFFFFFE1FFFFFFC
FFFFFFFE1FFFFFFC
FFFFFFFE1FFFFFFC
FFFFFFFE1FFFFFFC
FFFFFFFE00FFFFFC
FFFFFFFE00FFFFFC
FFFFFFFE00FFFFFC
FFFFFFFE00FFFFFC
FFFFFFFE000FFFFC
FFFFFFFE000FFFFC
FFFFFFFE000FFFFC
FFFFFFFE000FFFFC
FFFFFFFE000FFFFC
0FFFFFE000007F80
0FFFFFE000007F80
0FFFFFE000007F80
0FFFFFE000007F80
ENDCHAR
STARTCHAR L
ENCODING 76
SWIDTH 882 0
DWIDTH 66 0
BBX 57 62 1 0
BITMAP
0FFFFFC000000000
0FFFFFC000000000
0FFFFFC000000000
0FFFFFC000000000
0FFFFFC000000000
F007FFFE00000000
F007FFFE00000000
F007FFFE00000000
F007FFFE00000000
F007FFFE00000000
F0FFFFFE00000000
F0FFFFFE00000000
F0FFFFFE00000000
F0FFFFFE00000000
FFFFFFFE00000000
FFFFFFFE00000000
FFFFFFFE00000000
FFFFFFFE00000000
FFFFFFFE00000000
FFFFFFFE00000000
FFFFFFFE00000000
FFFFFFFE00000000
FFFFFFFE00000000
FFFFFFFE00000000
FFFFFFFE00000000
FFFFFFFE00000000
FFFFFFFE00000000
FFFFFFFE00000000
FFFFFFFE00000000
FFFFFFFE00000000
FFFFFFFE00000000
FFFFFFFE00000000
FFFFFFFE00000000
FFFFFFFE00000000
FFFFFFFE00000000
FFFFFFFE00000000
FFFFFFFE00000000
FFFFFFFE00000000
FFFFFFFE00000000
FFFFFFFE00000000
FFFFFFFE00000000
FFFFFFFE00000000
FFFFFFFE00000000
FFFFFFFE00000000
FFFFFFFFFFFFF800
FFFFFFFFFFFFF800
FFFFFFFFFFFFF800
FFFFFFFFFFFFF800
FFFFFFFFFFFFF800
FFFFFFFFFFFFFF80
FFFFFFFFFFFFFF80
FFFFFFFFFFFFFF80
FFFFFFFFFFFFFF80
FFFFFFFFFFFFFF80
FFFFFFFFFFFFFF80
FFFFFFFFFFFFFF80
FFFFFFFFFFFFFF80
FFFFFFFFFFFFFF80
0FFFFFFFFFFFF800
0FFFFFFFFFFFF800
0FFFFFFFFFFFF800
0FFFFFFFFFFFF800
ENDCHAR
STARTCHAR M
ENCODING 77
SWIDTH 1000 0
DWIDTH 75 0
BBX 66 62 1 0
BITMAP
0FFFFFC000007FFC00
0FFFFFC000007FFC00
0FFFFFC000007FFC00
0FFFFFC000007FFC00
0FFFFFC000007FFC00
F007FFFE000FFFFFC0
F007FFFE000FFFFFC0
F007FFFE000FFFFFC0
F007FFFE000FFFFFC0
F007FFFE000FFFFFC0
F0FFFFFE000FFFFFC0
F0FFFFFE000FFFFFC0
F0FFFFFE000FFFFFC0
F0FFFFFE000FFFFFC0
FFFFFFFE000FFFFFC0
FFFFFFFE000FFFFFC0
FFFFFFFE000FFFFFC0
FFFFFFFE000FFFFFC0
FFFFFFFE000FFFFFC0
FFFFFFFE000FFFFFC0
FFFFFFFE000FFFFFC0
FFFFFFFE000FFFFFC0
FFFFFFFFE0FFFFFFC0
FFFFFFFFE0FFFFFFC0
FFFFFFFFE0FFFFFFC0
FFFFFFFFE0FFFFFFC0
FFFFFFFFE0FFFFFFC0
FFFFFFFFFFFFFFFFC0
FFFFFFFFFFFFFFFFC0
FFFFFFFFFFFFFFFFC0
FFFFFFFFFFFFFFFFC0
FFFFFFFFFFFFFFFFC0
FFFFFFFFFFFFFFFFC0
FFFFFFFFFFFFFFFFC0
FFFFFFFFFFFFFFFFC0
FFFFFFFFFFFFFFFFC0
FFFFFFFFFFFFFFFFC0
FFFFFFFFFFFFFFFFC0
FFFFFFFFFFFFFFFFC0
FFFFFFFFFFFFFFFFC0
FFFFFFFFFFFFFFFFC0
FFFFFFFFFFFFFFFFC0
FFFFFFFFFFFFFFFFC0
FFFFFFFFFFFFFFFFC0
FFFFFFFE1F0FFFFFC0
FFFFFFFE1F0FFFFFC0
FFFFFFFE1F0FFFFFC0
FFFFFFFE1F0FFFFFC0
FFFFFFFE1F0FFFFFC0
FFFFFFFE000FFFFFC0
FFFFFFFE000FFFFFC0
FFFFFFFE000FFFFFC0
FFFFFFFE000FFFFFC0
FFFFFFFE000FFFFFC0
FFFFFFFE000FFFFFC0
FFFFFFFE000FFFFFC0
FFFFFFFE000FFFFFC0
FFFFFFFE000FFFFFC0
0FFFFFC000007FFC00
0FFFFFC000007FFC00
0FFFFFC000007FFC00
0FFFFFC000007FFC00
ENDCHAR
STARTCHAR N
ENCODING 78
SWIDTH 941 0
DWIDTH 71 0
BBX 62 62 1 0
BITMAP
0FFFFFE0001FFF80
0FFFFFE0001FFF80
0FFFFFE0001FFF80
0FFFFFE0001FFF80
0FFFFFE0001FFF80
F007FFFE01FFFFFC
F007FFFE01FFFFFC
F007FFFE01FFFFFC
F007FFFE01FFFFFC
F007FFFE01FFFFFC
F0FFFFFE01FFFFFC
F0FFFFFE01FFFFFC
F0FFFFFE01FFFFFC
F0FFFFFE01FFFFFC
FFFFFFFE01FFFFFC
FFFFFFFE01FFFFFC
FFFFFFFE01FFFFFC
FFFFFFFE01FFFFFC
FFFFFFFE01FFFFFC
FFFFFFFE01FFFFFC
FFFFFFFE01FFFFFC
FFFFFFFE01FFFFFC
FFFFFFFFE1FFFFFC
FFFFFFFFE1FFFFFC
FFFFFFFFE1FFFFFC
FFFFFFFFE1FFFFFC
FFFFFFFFE1FFFFFC
FFFFFFFFFFFFFFFC
FFFFFFFFFFFFFFFC
FFFFFFFFFFFFFFFC
FFFFFFFFFFFFFFFC
FFFFFFFFFFFFFFFC
FFFFFFFFFFFFFFFC
FFFFFFFFFFFFFFFC
FFFFFFFFFFFFFFFC
FFFFFFFFFFFFFFFC
FFFFFFFFFFFFFFFC
FFFFFFFFFFFFFFFC
FFFFFFFFFFFFFFFC
FFFFFFFFFFFFFFFC
FFFFFFFE1FFFFFFC
FFFFFFFE1FFFFFFC
FFFFFFFE1FFFFFFC
FFFFFFFE1FFFFFFC
FFFFFFFE01FFFFFC
FFFFFFFE01FFFFFC
FFFFFFFE01FFFFFC
FFFFFFFE01FFFFFC
FFFFFFFE01FFFFFC
FFFFFFFE01FFFFFC
FFFFFFFE01FFFFFC
FFFFFFFE01FFFFFC
FFFFFFFE01FFFFFC
FFFFFFFE01FFFFFC
FFFFFFFE01FFFFFC
FFFFFFFE01FFFFFC
FFFFFFFE01FFFFFC
FFFFFFFE01FFFFFC
0FFFFFE0001FFF80
0FFFFFE0001FFF80
0FFFFFE0001FFF80
0FFFFFE0001FFF80
ENDCHAR
STARTCHAR O
ENCODING 79
SWIDTH 941 0
DWIDTH 71 0
BBX 62 62 1 0
BITMAP
00FFFFFFFFFFF800
00FFFFFFFFFFF800
00FFFFFFFFFFF800
00FFFFFFFFFFF800
00FFFFFFFFFFF800
0007FFFFFFFFFF80
0007FFFFFFFFFF80
0007FFFFFFFFFF80
0007FFFFFFFFFF80
0007FFFFFFFFFF80
F0FFFFFFFFFFFFFC
F0FFFFFFFFFFFFFC
F0FFFFFFFFFFFFFC
FFFFFFFE000FFFFC
FFFFFFFE000FFFFC
FFFFFFFE000FFFFC
FFFFFFFE000FFFFC
FFFFFFFE000FFFFC
FFFFFFFE000FFFFC
FFFFFFFE000FFFFC
FFFFFFFE000FFFFC
FFFFFFFE000FFFFC
FFFFFFFE000FFFFC
FFFFFFFE000FFFFC
FFFFFFFE000FFFFC
FFFFFFFE000FFFFC
FFFFFFFE000FFFFC
FFFFFFFE000FFFFC
FFFFFFFE000FFFFC
FFFFFFFE000FFFFC
FFFFFFFE000FFFFC
FFFFFFFE000FFFFC
FFFFFFFE000FFFFC
FFFFFFFE000FFFFC
FFFFFFFE000FFFFC
FFFFFFFE000FFFFC
FFFFFFFE000FFFFC
FFFFFFFE000FFFFC
FFFFFFFE000FFFFC
FFFFFFFE000FFFFC
FFFFFFFE000FFFFC
FFFFFFFE000FFFFC
FFFFFFFE000FFFFC
FFFFFFFE000FFFFC
FFFFFFFFFFFFFFFC
FFFFFFFFFFFFFFFC
FFFFFFFFFFFFFFFC
FFFFFFFFFFFFFFFC
FFFFFFFFFFFFFFFC
FFFFFFFFFFFFFFFC
FFFFFFFFFFFFFFFC
FFFFFFFFFFFFFFFC
FFFFFFFFFFFFFFFC
0FFFFFFFFFFFFF80
0FFFFFFFFFFFFF80
0FFFFFFFFFFFFF80
0FFFFFFFFFFFFF80
0FFFFFFFFFFFFF80
00FFFFFFFFFFF800
00FFFFFFFFFFF800
00FFFFFFFFFFF800
00FFFFFFFFFFF800
ENDCHAR
STARTCHAR P
ENCODING 80
SWIDTH 941 0
DWIDTH 71 0
BBX 62 62 1 0
BITMAP
0FFFFFFFFFFFF800
0FFFFFFFFFFFF800
0FFFFFFFFFFFF800
0FFFFFFFFFFFF800
0FFFFFFFFFFFF800
F007FFFFFFFFFF80
F007FFFFFFFFFF80
F007FFFFFFFFFF80
F007FFFFFFFFFF80
F007FFFFFFFFFF80
F0FFFFFFFFFFFFFC
F0FFFFFFFFFFFFFC
F0FFFFFFFFFFFFFC
F0FFFFFFFFFFFFFC
FFFFFFFE00FFFFFC
FFFFFFFE00FFFFFC
FFFFFFFE00FFFFFC
FFFFFFFE00FFFFFC
FFFFFFFE00FFFFFC
FFFFFFFE00FFFFFC
FFFFFFFE00FFFFFC
FFFFFFFE00FFFFFC
FFFFFFFE00FFFFFC
FFFFFFFE00FFFFFC
FFFFFFFE00FFFFFC
FFFFFFFE00FFFFFC
FFFFFFFE00FFFFFC
FFFFFFFE00FFFFFC
FFFFFFFE00FFFFFC
FFFFFFFE00FFFFFC
FFFFFFFE00FFFFFC
FFFFFFFE00FFFFFC
FFFFFFFFFFFFFFFC
FFFFFFFFFFFFFFFC
FFFFFFFFFFFFFFFC
FFFFFFFFFFFFFFFC
FFFFFFFFFFFFFF80
FFFFFFFFFFFFFF80
FFFFFFFFFFFFFF80
FFFFFFFFFFFFFF80
FFFFFFFFFFFFF800
FFFFFFFFFFFFF800
FFFFFFFFFFFFF800
FFFFFFFFFFFFF800
FFFFFFFE00000000
FFFFFFFE00000000
FFFFFFFE00000000
FFFFFFFE00000000
FFFFFFFE00000000
FFFFFFFE00000000
FFFFFFFE00000000
FFFFFFFE00000000
FFFFFFFE00000000
FFFFFFFE00000000
FFFFFFFE00000000
FFFFFFFE00000000
FFFFFFFE00000000
FFFFFFFE00000000
0FFFFFC000000000
0FFFFFC000000000
0FFFFFC000000000
0FFFFFC000000000
ENDCHAR
STARTCHAR Q
ENCODING 81
SWIDTH 941 0
DWIDTH 71 0
BBX 62 71 1 -9
BITMAP
00FFFFFFFFFFF800
00FFFFFFFFFFF800
00FFFFFFFFFFF800
00FFFFFFFFFFF800
00FFFFFFFFFFF800
0007FFFFFFFFFF80
0007FFFFFFFFFF80
0007FFFFFFFFFF80
0007FFFFFFFFFF80
0007FFFFFFFFFF80
F0FFFFFFFFFFFFFC
F0FFFFFFFFFFFFFC
F0FFFFFFFFFFFFFC
FFFFFFFE000FFFFC
FFFFFFFE000FFFFC
FFFFFFFE000FFFFC
FFFFFFFE000FFFFC
FFFFFFFE000FFFFC
FFFFFFFE000FFFFC
FFFFFFFE000FFFFC
FFFFFFFE000FFFFC
FFFFFFFE000FFFFC
FFFFFFFE000FFFFC
FFFFFFFE000FFFFC
FFFFFFFE000FFFFC
FFFFFFFE000FFFFC
FFFFFFFE000FFFFC
FFFFFFFE000FFFFC
FFFFFFFE000FFFFC
FFFFFFFE000FFFFC
FFFFFFFE000FFFFC
FFFFFFFE000FFFFC
FFFFFFFE000FFFFC
FFFFFFFE000FFFFC
FFFFFFFE000FFFFC
FFFFFFFE000FFFFC
FFFFFFFE000FFFFC
FFFFFFFE000FFFFC
FFFFFFFE000FFFFC
FFFFFFFE000FFFFC
FFFFFFFE000FFFFC
FFFFFFFE000FFFFC
FFFFFFFE000FFFFC
FFFFFFFE000FFFFC
FFFFFFFFFFFFFFFC
FFFFFFFFFFFFFFFC
FFFFFFFFFFFFFFFC
FFFFFFFFFFFFFFFC
FFFFFFFFFFFFFFFC
FFFFFFFFFFFFFFFC
FFFFFFFFFFFFFFFC
FFFFFFFFFFFFFFFC
FFFFFFFFFFFFFFFC
0FFFFFFFFFFFFF80
0FFFFFFFFFFFFF80
0FFFFFFFFFFFFF80
0FFFFFFFFFFFFF80
0FFFFFFFFFFFFF80
00FFFFFFFFFFF800
00FFFFFFFFFFF800
00FFFFFFFFFFF800
00FFFFFFFFFFF800
00000001FFFFF800
00000001FFFFF800
00000001FFFFF800
00000001FFFFF800
000000001FFFF800
000000001FFFF800
000000001FFFF800
000000001FFFF800
000000001FFFF800
ENDCHAR
STARTCHAR R
ENCODING 82
SWIDTH 941 0
DWIDTH 71 0
BBX 62 62 1 0
BITMAP
0FFFFFFFFFFFF800
0FFFFFFFFFFFF800
0FFFFFFFFFFFF800
0FFFFFFFFFFFF800
F007FFFFFFFFFF80
F007FFFFFFFFFF80
F007FFFFFFFFFF80
F007FFFFFFFFFF80
F007FFFFFFFFFF80
F0FFFFFFFFFFFFFC
F0FFFFFFFFFFFFFC
F0FFFFFFFFFFFFFC
F0FFFFFFFFFFFFFC
FFFFFFFE000FFFFC
FFFFFFFE000FFFFC
FFFFFFFE000FFFFC
FFFFFFFE000FFFFC
FFFFFFFE000FFFFC
FFFFFFFE000FFFFC
FFFFFFFE000FFFFC
FFFFFFFE000FFFFC
FFFFFFFE000FFFFC
FFFFFFFFFFFFFFFC
FFFFFFFFFFFFFFFC
FFFFFFFFFFFFFFFC
FFFFFFFFFFFFFFFC
FFFFFFFFFFFFFFFC
FFFFFFFFFFFFFF80
FFFFFFFFFFFFFF80
FFFFFFFFFFFFFF80
FFFFFFFFFFFFFF80
FFFFFFFFFFFFF800
FFFFFFFFFFFFF800
FFFFFFFFFFFFF800
FFFFFFFFFFFFF800
FFFFFFFFFFFFF800
FFFFFFFFFFFFFF80
FFFFFFFFFFFFFF80
FFFFFFFFFFFFFF80
FFFFFFFFFFFFFF80
FFFFFFFFFFFFFFFC
FFFFFFFFFFFFFFFC
FFFFFFFFFFFFFFFC
FFFFFFFFFFFFFFFC
FFFFFFFE1FFFFFFC
FFFFFFFE1FFFFFFC
FFFFFFFE1FFFFFFC
FFFFFFFE1FFFFFFC
FFFFFFFE1FFFFFFC
FFFFFFFE00FFFFFC
FFFFFFFE00FFFFFC
FFFFFFFE00FFFFFC
FFFFFFFE00FFFFFC
FFFFFFFE000FFFFC
FFFFFFFE000FFFFC
FFFFFFFE000FFFFC
FFFFFFFE000FFFFC
FFFFFFFE000FFFFC
0FFFFFE000007F80
0FFFFFE000007F80
0FFFFFE000007F80
0FFFFFE000007F80
ENDCHAR
STARTCHAR S
ENCODING 83
SWIDTH 941 0
DWIDTH 71 0
BBX 62 62 1 0
BITMAP
00FFFFFFFFFFFF80
00FFFFFFFFFFFF80
00FFFFFFFFFFFF80
00FFFFFFFFFFFF80
00FFFFFFFFFFFF80
0007FFFFFFFFFFFC
0007FFFFFFFFFFFC
0007FFFFFFFFFFFC
0007FFFFFFFFFFFC
0007FFFFFFFFFFFC
F0FFFFFFFFFFFFFC
F0FFFFFFFFFFFFFC
F0FFFFFFFFFFFFFC
F0FFFFFFFFFFFF80
FFFFFFFFFFFFFF80
FFFFFFFFFFFFFF80
FFFFFFFFFFFFFF80
FFFFFFFFFFFFFF80
FFFFFFFE00000000
FFFFFFFE00000000
FFFFFFFE00000000
FFFFFFFE00000000
FFFFFFFE00000000
FFFFFFFFFFFFFF80
FFFFFFFFFFFFFF80
FFFFFFFFFFFFFF80
FFFFFFFFFFFFFF80
FFFFFFFFFFFFFFFC
FFFFFFFFFFFFFFFC
FFFFFFFFFFFFFFFC
FFFFFFFFFFFFFFFC
0FFFFFFFFFFFFFFC
0FFFFFFFFFFFFFFC
0FFFFFFFFFFFFFFC
0FFFFFFFFFFFFFFC
0000000000FFFFFC
0000000000FFFFFC
0000000000FFFFFC
0000000000FFFFFC
0000000000FFFFFC
0FFFFFFFFFFFFFFC
0FFFFFFFFFFFFFFC
0FFFFFFFFFFFFFFC
0FFFFFFFFFFFFFFC
FFFFFFFFFFFFFFFC
FFFFFFFFFFFFFFFC
FFFFFFFFFFFFFFFC
FFFFFFFFFFFFFFFC
FFFFFFFFFFFFFFFC
FFFFFFFFFFFFFFFC
FFFFFFFFFFFFFFFC
FFFFFFFFFFFFFFFC
FFFFFFFFFFFFFFFC
FFFFFFFFFFFFFF80
FFFFFFFFFFFFFF80
FFFFFFFFFFFFFF80
FFFFFFFFFFFFFF80
FFFFFFFFFFFFFF80
0FFFFFFFFFFFF800
0FFFFFFFFFFFF800
0FFFFFFFFFFFF800
0FFFFFFFFFFFF800
ENDCHAR
STARTCHAR T
ENCODING 84
SWIDTH 941 0
DWIDTH 71 0
BBX 62 62 1 0
BITMAP
0FFFFFFFFFFFFF80
0FFFFFFFFFFFFF80
0FFFFFFFFFFFFF80
0FFFFFFFFFFFFF80
0FFFFFFFFFFFFF80
F007FFFFFFFFFFFC
F007FFFFFFFFFFFC
F007FFFFFFFFFFFC
F007FFFFFFFFFFFC
F007FFFFFFFFFFFC
F0FFFFFFFFFFFFFC
F0FFFFFFFFFFFFFC
F0FFFFFFFFFFFFFC
F0FFFFFFFFFFFFFC
0FFFFFFFFFFFFF80
0FFFFFFFFFFFFF80
0FFFFFFFFFFFFF80
0FFFFFFFFFFFFF80
00003FFFFFF00000
00003FFFFFF00000
00003FFFFFF00000
00003FFFFFF00000
00003FFFFFF00000
00003FFFFFF00000
00003FFFFFF00000
00003FFFFFF00000
00003FFFFFF00000
00003FFFFFF00000
00003FFFFFF00000
00003FFFFFF00000
00003FFFFFF00000
00003FFFFFF00000
00003FFFFFF00000
00003FFFFFF00000
00003FFFFFF00000
00003FFFFFF00000
00003FFFFFF00000
00003FFFFFF00000
00003FFFFFF00000
00003FFFFFF00000
00003FFFFFF00000
00003FFFFFF00000
00003FFFFFF00000
00003FFFFFF00000
00003FFFFFF00000
00003FFFFFF00000
00003FFFFFF00000
00003FFFFFF00000
00003FFFFFF00000
00003FFFFFF00000
00003FFFFFF00000
00003FFFFFF00000
00003FFFFFF00000
00003FFFFFF00000
00003FFFFFF00000
00003FFFFFF00000
00003FFFFFF00000
00003FFFFFF00000
000003FFFF000000
000003FFFF000000
000003FFFF000000
000003FFFF000000
ENDCHAR
STARTCHAR U
ENCODING 85
SWIDTH 941 0
DWIDTH 71 0
BBX 62 62 1 0
BITMAP
0FFFFFE0000FFF80
0FFFFFE0000FFF80
0FFFFFE0000FFF80
0FFFFFE0000FFF80
0FFFFFE0000FFF80
F007FFFE00FFFFFC
F007FFFE00FFFFFC
F007FFFE00FFFFFC
F007FFFE00FFFFFC
F007FFFE00FFFFFC
F0FFFFFE00FFFFFC
F0FFFFFE00FFFFFC
F0FFFFFE00FFFFFC
F0FFFFFE00FFFFFC
FFFFFFFE00FFFFFC
FFFFFFFE00FFFFFC
FFFFFFFE00FFFFFC
FFFFFFFE00FFFFFC
FFFFFFFE00FFFFFC
FFFFFFFE00FFFFFC
FFFFFFFE00FFFFFC
FFFFFFFE00FFFFFC
FFFFFFFE00FFFFFC
FFFFFFFE00FFFFFC
FFFFFFFE00FFFFFC
FFFFFFFE00FFFFFC
FFFFFFFE00FFFFFC
FFFFFFFE00FFFFFC
FFFFFFFE00FFFFFC
FFFFFFFE00FFFFFC
FFFFFFFE00FFFFFC
FFFFFFFE00FFFFFC
FFFFFFFE00FFFFFC
FFFFFFFE00FFFFFC
FFFFFFFE00FFFFFC
FFFFFFFE00FFFFFC
FFFFFFFE00FFFFFC
FFFFFFFE00FFFFFC
FFFFFFFE00FFFFFC
FFFFFFFE00FFFFFC
FFFFFFFE00FFFFFC
FFFFFFFE00FFFFFC
FFFFFFFE00FFFFFC
FFFFFFFE00FFFFFC
FFFFFFFFFFFFFFFC
FFFFFFFFFFFFFFFC
FFFFFFFFFFFFFFFC
FFFFFFFFFFFFFFFC
FFFFFFFFFFFFFFFC
FFFFFFFFFFFFFFFC
FFFFFFFFFFFFFFFC
FFFFFFFFFFFFFFFC
FFFFFFFFFFFFFFFC
0FFFFFFFFFFFFF80
0FFFFFFFFFFFFF80
0FFFFFFFFFFFFF80
0FFFFFFFFFFFFF80
0FFFFFFFFFFFFF80
00FFFFFFFFFFF800
00FFFFFFFFFFF800
00FFFFFFFFFFF800
00FFFFFFFFFFF800
ENDCHAR
STARTCHAR V
ENCODING 86
SWIDTH 941 0
DWIDTH 71 0
BBX 62 62 1 0
BITMAP
0FFFFFE0000FFF80
0FFFFFE0000FFF80
0FFFFFE0000FFF80
0FFFFFE0000FFF80
0FFFFFE0000FFF80
F007FFFE00FFFFFC
F007FFFE00FFFFFC
F007FFFE00FFFFFC
F007FFFE00FFFFFC
F007FFFE00FFFFFC
F0FFFFFE00FFFFFC
F0FFFFFE00FFFFFC
F0FFFFFE00FFFFFC
F0FFFFFE00FFFFFC
FFFFFFFE00FFFFFC
FFFFFFFE00FFFFFC
FFFFFFFE00FFFFFC
FFFFFFFE00FFFFFC
FFFFFFFE00FFFFFC
FFFFFFFE00FFFFFC
FFFFFFFE00FFFFFC
FFFFFFFE00FFFFFC
FFFFFFFE00FFFFFC
FFFFFFFE00FFFFFC
FFFFFFFE00FFFFFC
FFFFFFFE00FFFFFC
FFFFFFFE00FFFFFC
FFFFFFFE00FFFFFC
FFFFFFFE00FFFFFC
FFFFFFFE00FFFFFC
FFFFFFFE00FFFFFC
FFFFFFFE1FFFFFFC
FFFFFFFE1FFFFFFC
FFFFFFFE1FFFFFFC
FFFFFFFE1FFFFFFC
FFFFFFFE1FFFFFFC
FFFFFFFFFFFFFF80
FFFFFFFFFFFFFF80
FFFFFFFFFFFFFF80
FFFFFFFFFFFFFF80
FFFFFFFFFFFFF800
FFFFFFFFFFFFF800
FFFFFFFFFFFFF800
FFFFFFFFFFFFF800
FFFFFFFFFFFF8000
FFFFFFFFFFFF8000
FFFFFFFFFFFF8000
FFFFFFFFFFFF8000
FFFFFFFFFFFF8000
FFFFFFFFFFF00000
FFFFFFFFFFF00000
FFFFFFFFFFF00000
FFFFFFFFFFF00000
0FFFFFFFFF000000
0FFFFFFFFF000000
0FFFFFFFFF000000
0FFFFFFFFF000000
0FFFFFFFFF000000
00FFFFFFE0000000
00FFFFFFE0000000
00FFFFFFE0000000
00FFFFFFE0000000
ENDCHAR
STARTCHAR W
ENCODING 87
SWIDTH 1000 0
DWIDTH 75 0
BBX 66 62 1 0
BITMAP
0FFFFFE000007FFC00
0FFFFFE000007FFC00
0FFFFFE000007FFC00
0FFFFFE000007FFC00
0FFFFFE000007FFC00
F007FFFF000FFFFFC0
F007FFFF000FFFFFC0
F007FFFF000FFFFFC0
F007FFFF000FFFFFC0
F007FFFF000FFFFFC0
F0FFFFFF000FFFFFC0
F0FFFFFF000FFFFFC0
F0FFFFFF000FFFFFC0
F0FFFFFF000FFFFFC0
FFFFFFFF000FFFFFC0
FFFFFFFF000FFFFFC0
FFFFFFFF000FFFFFC0
FFFFFFFF000FFFFFC0
FFFFFFFF000FFFFFC0
FFFFFFFF000FFFFFC0
FFFFFFFF000FFFFFC0
FFFFFFFF000FFFFFC0
FFFFFFFF000FFFFFC0
FFFFFFFF000FFFFFC0
FFFFFFFF000FFFFFC0
FFFFFFFF000FFFFFC0
FFFFFFFF000FFFFFC0
FFFFFFFF0F0FFFFFC0
FFFFFFFF0F0FFFFFC0
FFFFFFFF0F0FFFFFC0
FFFFFFFF0F0FFFFFC0
FFFFFFFFFFFFFFFFC0
FFFFFFFFFFFFFFFFC0
FFFFFFFFFFFFFFFFC0
FFFFFFFFFFFFFFFFC0
FFFFFFFFFFFFFFFFC0
FFFFFFFFFFFFFFFFC0
FFFFFFFFFFFFFFFFC0
FFFFFFFFFFFFFFFFC0
FFFFFFFFFFFFFFFFC0
FFFFFFFFFFFFFFFFC0
FFFFFFFFFFFFFFFFC0
FFFFFFFFFFFFFFFFC0
FFFFFFFFFFFFFFFFC0
FFFFFFFFFFFFFFFFC0
FFFFFFFFFFFFFFFFC0
FFFFFFFFFFFFFFFFC0
FFFFFFFFFFFFFFFFC0
FFFFFFFFFFFFFFFFC0
FFFFFFFFF0FFFFFFC0
FFFFFFFFF0FFFFFFC0
FFFFFFFFF0FFFFFFC0
FFFFFFFFF0FFFFFFC0
FFFFFFFF000FFFFFC0
FFFFFFFF000FFFFFC0
FFFFFFFF000FFFFFC0
FFFFFFFF000FFFFFC0
FFFFFFFF000FFFFFC0
0FFFFFE000007FFC00
0FFFFFE000007FFC00
0FFFFFE000007FFC00
0FFFFFE000007FFC00
ENDCHAR
STARTCHAR X
ENCODING 88
SWIDTH 941 0
DWIDTH 71 0
BBX 62 62 1 0
BITMAP
0FFF8000000FFF80
0FFF8000000FFF80
0FFF8000000FFF80
0FFF8000000FFF80
0FFF8000000FFF80
F007FC0000FFFFFC
F007FC0000FFFFFC
F007FC0000FFFFFC
F007FC0000FFFFFC
F007FC0000FFFFFC
F0FFFFC01FFFFFFC
F0FFFFC01FFFFFFC
F0FFFFC01FFFFFFC
F0FFFFC01FFFFFFC
FFFFFFFFFFFFFFFC
FFFFFFFFFFFFFFFC
FFFFFFFFFFFFFFFC
FFFFFFFFFFFFFFFC
0FFFFFFFFFFFFF80
0FFFFFFFFFFFFF80
0FFFFFFFFFFFFF80
0FFFFFFFFFFFFF80
00FFFFFFFFFFF800
00FFFFFFFFFFF800
00FFFFFFFFFFF800
00FFFFFFFFFFF800
00FFFFFFFFFFF800
0007FFFFFFFF8000
0007FFFFFFFF8000
0007FFFFFFFF8000
0007FFFFFFFF8000
0007FFFFFFFF8000
0007FFFFFFFF8000
0007FFFFFFFF8000
0007FFFFFFFF8000
0007FFFFFFFF8000
00FFFFFFFFFFF800
00FFFFFFFFFFF800
00FFFFFFFFFFF800
00FFFFFFFFFFF800
0FFFFFFFFFFFFF80
0FFFFFFFFFFFFF80
0FFFFFFFFFFFFF80
0FFFFFFFFFFFFF80
0FFFFFFFFFFFFF80
FFFFFFFFFFFFFFFC
FFFFFFFFFFFFFFFC
FFFFFFFFFFFFFFFC
FFFFFFFFFFFFFFFC
FFFFFFC01FFFFFFC
FFFFFFC01FFFFFFC
FFFFFFC01FFFFFFC
FFFFFFC01FFFFFFC
FFFFFC0000FFFFFC
FFFFFC0000FFFFFC
FFFFFC0000FFFFFC
FFFFFC0000FFFFFC
FFFFFC0000FFFFFC
0FFF8000000FFF80
0FFF8000000FFF80
0FFF8000000FFF80
0FFF8000000FFF80
ENDCHAR
STARTCHAR Y
ENCODING 89
SWIDTH 941 0
DWIDTH 71 0
BBX 62 62 1 0
BITMAP
0FFFFC0001FFFF80
0FFFFC0001FFFF80
0FFFFC0001FFFF80
0FFFFC0001FFFF80
0FFFFC0001FFFF80
F007FFC01FFFFFFC
F007FFC01FFFFFFC
F007FFC01FFFFFFC
F007FFC01FFFFFFC
F07FFFFFFFFFFFFC
F07FFFFFFFFFFFFC
F07FFFFFFFFFFFFC
F07FFFFFFFFFFFFC
FFFFFFFFFFFFFFFC
FFFFFFFFFFFFFFFC
FFFFFFFFFFFFFFFC
FFFFFFFFFFFFFFFC
FFFFFFFFFFFFFFFC
0FFFFFFFFFFFFF80
0FFFFFFFFFFFFF80
0FFFFFFFFFFFFF80
0FFFFFFFFFFFFF80
007FFFFFFFFFF800
007FFFFFFFFFF800
007FFFFFFFFFF800
007FFFFFFFFFF800
0007FFFFFFFF8000
0007FFFFFFFF8000
0007FFFFFFFF8000
0007FFFFFFFF8000
0007FFFFFFFF8000
00003FFFFFF00000
00003FFFFFF00000
00003FFFFFF00000
00003FFFFFF00000
00003FFFFFF00000
00003FFFFFF00000
00003FFFFFF00000
00003FFFFFF00000
00003FFFFFF00000
00003FFFFFF00000
00003FFFFFF00000
00003FFFFFF00000
00003FFFFFF00000
00003FFFFFF00000
00003FFFFFF00000
00003FFFFFF00000
00003FFFFFF00000
00003FFFFFF00000
00003FFFFFF00000
00003FFFFFF00000
00003FFFFFF00000
00003FFFFFF00000
00003FFFFFF00000
00003FFFFFF00000
00003FFFFFF00000
00003FFFFFF00000
00003FFFFFF00000
000003FFFE000000
000003FFFE000000
000003FFFE000000
000003FFFE000000
ENDCHAR
STARTCHAR Z
ENCODING 90
SWIDTH 941 0
DWIDTH 71 0
BBX 62 62 1 0
BITMAP
0FFFFFFFFFFFFF80
0FFFFFFFFFFFFF80
0FFFFFFFFFFFFF80
0FFFFFFFFFFFFF80
0FFFFFFFFFFFFF80
F007FFFFFFFFFFFC
F007FFFFFFFFFFFC
F007FFFFFFFFFFFC
F007FFFFFFFFFFFC
F007FFFFFFFFFFFC
F0FFFFFFFFFFFFFC
F0FFFFFFFFFFFFFC
F0FFFFFFFFFFFFFC
F0FFFFFFFFFFFFFC
0FFFFFFFFFFFFFFC
0FFFFFFFFFFFFFFC
0FFFFFFFFFFFFFFC
0FFFFFFFFFFFFFFC
0000003FFFFFFF80
0000003FFFFFFF80
0000003FFFFFFF80
0000003FFFFFFF80
0000003FFFFFFF80
000003FFFFFFF800
000003FFFFFFF800
000003FFFFFFF800
000003FFFFFFF800
00003FFFFFFF8000
00003FFFFFFF8000
00003FFFFFFF8000
00003FFFFFFF8000
0007FFFFFFF00000
0007FFFFFFF00000
0007FFFFFFF00000
0007FFFFFFF00000
00FFFFFFFF000000
00FFFFFFFF000000
00FFFFFFFF000000
00FFFFFFFF000000
00FFFFFFFF000000
0FFFFFFFFFFFFF80
0FFFFFFFFFFFFF80
0FFFFFFFFFFFFF80
0FFFFFFFFFFFFF80
FFFFFFFFFFFFFFFC
FFFFFFFFFFFFFFFC
FFFFFFFFFFFFFFFC
FFFFFFFFFFFFFFFC
FFFFFFFFFFFFFFFC
FFFFFFFFFFFFFFFC
FFFFFFFFFFFFFFFC
FFFFFFFFFFFFFFFC
FFFFFFFFFFFFFFFC
FFFFFFFFFFFFFFFC
FFFFFFFFFFFFFFFC
FFFFFFFFFFFFFFFC
FFFFFFFFFFFFFFFC
FFFFFFFFFFFFFFFC
0FFFFFFFFFFFFF80
0FFFFFFFFFFFFF80
0FFFFFFFFFFFFF80
0FFFFFFFFFFFFF80
ENDCHAR
STARTCHAR bracketleft
ENCODING 91
SWIDTH 529 0
DWIDTH 40 0
BBX 31 62 1 0
BITMAP
00FFFFC0
00FFFFC0
00FFFFC0
00FFFFC0
00FFFFC0
0007FFFE
0007FFFE
0007FFFE
0007FFFE
F0FFFFFE
F0FFFFFE
F0FFFFFE
F0FFFFFE
F0FFFFFE
FFFFFFC0
FFFFFFC0
FFFFFFC0
FFFFFFC0
FFFFFC00
FFFFFC00
FFFFFC00
FFFFFC00
FFFFFC00
FFFFFC00
FFFFFC00
FFFFFC00
FFFFFC00
FFFFFC00
FFFFFC00
FFFFFC00
FFFFFC00
FFFFFC00
FFFFFC00
FFFFFC00
FFFFFC00
FFFFFC00
FFFFFC00
FFFFFC00
FFFFFC00
FFFFFC00
FFFFFC00
FFFFFC00
FFFFFC00
FFFFFC00
FFFFFFC0
FFFFFFC0
FFFFFFC0
FFFFFFC0
FFFFFFC0
FFFFFFFE
FFFFFFFE
FFFFFFFE
FFFFFFFE
0FFFFFFE
0FFFFFFE
0FFFFFFE
0FFFFFFE
0FFFFFFE
00FFFFC0
00FFFFC0
00FFFFC0
00FFFFC0
ENDCHAR
STARTCHAR backslash
ENCODING 92
SWIDTH 941 0
DWIDTH 71 0
BBX 62 62 1 0
BITMAP
0FFFC00000000000
0FFFC00000000000
0FFFC00000000000
0FFFC00000000000
0FFFC00000000000
F007FC0000000000
F007FC0000000000
F007FC0000000000
F007FC0000000000
F007FC0000000000
F0FFFFC000000000
F0FFFFC000000000
F0FFFFC000000000
F0FFFFC000000000
FFFFFFFE00000000
FFFFFFFE00000000
FFFFFFFE00000000
FFFFFFFE00000000
0FFFFFFFE0000000
0FFFFFFFE0000000
0FFFFFFFE0000000
0FFFFFFFE0000000
00FFFFFFFF000000
00FFFFFFFF000000
00FFFFFFFF000000
00FFFFFFFF000000
00FFFFFFFF000000
0007FFFFFFF00000
0007FFFFFFF00000
0007FFFFFFF00000
0007FFFFFFF00000
00003FFFFFFF8000
00003FFFFFFF8000
00003FFFFFFF8000
00003FFFFFFF8000
00003FFFFFFF8000
000003FFFFFFF800
000003FFFFFFF800
000003FFFFFFF800
000003FFFFFFF800
0000003FFFFFFF80
0000003FFFFFFF80
0000003FFFFFFF80
0000003FFFFFFF80
00000001FFFFFFFC
00000001FFFFFFFC
00000001FFFFFFFC
00000001FFFFFFFC
00000001FFFFFFFC
000000001FFFFFFC
000000001FFFFFFC
000000001FFFFFFC
000000001FFFFFFC
0000000000FFFFFC
0000000000FFFFFC
0000000000FFFFFC
0000000000FFFFFC
0000000000FFFFFC
00000000000FFF80
00000000000FFF80
00000000000FFF80
00000000000FFF80
ENDCHAR
STARTCHAR bracketright
ENCODING 93
SWIDTH 529 0
DWIDTH 40 0
BBX 31 62 1 0
BITMAP
0FFFFC00
0FFFFC00
0FFFFC00
0FFFFC00
0FFFFC00
F007FFC0
F007FFC0
F007FFC0
F007FFC0
F007FFC0
F0FFFFFE
F0FFFFFE
F0FFFFFE
F0FFFFFE
0FFFFFFE
0FFFFFFE
0FFFFFFE
0FFFFFFE
00FFFFFE
00FFFFFE
00FFFFFE
00FFFFFE
00FFFFFE
00FFFFFE
00FFFFFE
00FFFFFE
00FFFFFE
00FFFFFE
00FFFFFE
00FFFFFE
00FFFFFE
00FFFFFE
00FFFFFE
00FFFFFE
00FFFFFE
00FFFFFE
00FFFFFE
00FFFFFE
00FFFFFE
00FFFFFE
00FFFFFE
00FFFFFE
00FFFFFE
00FFFFFE
0FFFFFFE
0FFFFFFE
0FFFFFFE
0FFFFFFE
0FFFFFFE
FFFFFFFE
FFFFFFFE
FFFFFFFE
FFFFFFFE
FFFFFFC0
FFFFFFC0
FFFFFFC0
FFFFFFC0
FFFFFFC0
0FFFFC00
0FFFFC00
0FFFFC00
0FFFFC00
ENDCHAR
STARTCHAR asciicircum
ENCODING 94
SWIDTH 588 0
DWIDTH 44 0
BBX 35 22 1 35
BITMAP
0FFFFFFE00
0FFFFFFE00
0FFFFFFE00
0FFFFFFE00
F007FFFFE0
F007FFFFE0
F007FFFFE0
F007FFFFE0
F007FFFFE0
F0FFFFFFE0
F0FFFFFFE0
F0FFFFFFE0
F0FFFFFFE0
FFFFFFFFE0
FFFFFFFFE0
FFFFFFFFE0
FFFFFFFFE0
0FFFFFFE00
0FFFFFFE00
0FFFFFFE00
0FFFFFFE00
0FFFFFFE00
ENDCHAR
STARTCHAR underscore
ENCODING 95
SWIDTH 941 0
DWIDTH 71 0
BBX 62 22 1 0
BITMAP
0FFFFFFFFFFFFF80
0FFFFFFFFFFFFF80
0FFFFFFFFFFFFF80
0FFFFFFFFFFFFF80
F007FFFFFFFFFFFC
F007FFFFFFFFFFFC
F007FFFFFFFFFFFC
F007FFFFFFFFFFFC
F007FFFFFFFFFFFC
F0FFFFFFFFFFFFFC
F0FFFFFFFFFFFFFC
F0FFFFFFFFFFFFFC
F0FFFFFFFFFFFFFC
FFFFFFFFFFFFFFFC
FFFFFFFFFFFFFFFC
FFFFFFFFFFFFFFFC
FFFFFFFFFFFFFFFC
FFFFFFFFFFFFFFFC
0FFFFFFFFFFFFF80
0FFFFFFFFFFFFF80
0FFFFFFFFFFFFF80
0FFFFFFFFFFFFF80
ENDCHAR
STARTCHAR grave
ENCODING 96
SWIDTH 588 0
DWIDTH 44 0
BBX 35 22 1 35
BITMAP
0FFFFFFE00
0FFFFFFE00
0FFFFFFE00
0FFFFFFE00
F007FFFFE0
F007FFFFE0
F007FFFFE0
F007FFFFE0
F007FFFFE0
F0FFFFFFE0
F0FFFFFFE0
F0FFFFFFE0
F0FFFFFFE0
FFFFFFFFE0
FFFFFFFFE0
FFFFFFFFE0
FFFFFFFFE0
0FFFFFFE00
0FFFFFFE00
0FFFFFFE00
0FFFFFFE00
0FFFFFFE00
ENDCHAR
STARTCHAR a
ENCODING 97
SWIDTH 823 0
DWIDTH 62 0
BBX 53 53 1 0
BITMAP
00FFFFFFFFF000
00FFFFFFFFF000
00FFFFFFFFF000
00FFFFFFFFF000
0007FFFFFFFF80
0007FFFFFFFF80
0007FFFFFFFF80
0007FFFFFFFF80
0007FFFFFFFF80
F0FFFFFFFFFFF8
F0FFFFFFFFFFF8
F0FFFFFFFFFFF8
F0FFFFFFFFFFF8
FFFFFFE000FFF8
FFFFFFE000FFF8
FFFFFFE000FFF8
FFFFFFE000FFF8
FFFFFFE000FFF8
FFFFFFFFFFFFF8
FFFFFFFFFFFFF8
FFFFFFFFFFFFF8
FFFFFFFFFFFFF8
FFFFFFFFFFFFF8
FFFFFFFFFFFFF8
FFFFFFFFFFFFF8
FFFFFFFFFFFFF8
FFFFFFFFFFFFF8
FFFFFFFFFFFFF8
FFFFFFFFFFFFF8
FFFFFFFFFFFFF8
FFFFFFFFFFFFF8
FFFFFFE000FFF8
FFFFFFE000FFF8
FFFFFFE000FFF8
FFFFFFE000FFF8
FFFFFFE000FFF8
FFFFFFE000FFF8
FFFFFFE000FFF8
FFFFFFE000FFF8
FFFFFFE000FFF8
FFFFFFE000FFF8
FFFFFFE000FFF8
FFFFFFE000FFF8
FFFFFFE000FFF8
FFFFFFE000FFF8
FFFFFFE000FFF8
FFFFFFE000FFF8
FFFFFFE000FFF8
FFFFFFE000FFF8
0FFFFC00000F80
0FFFFC00000F80
0FFFFC00000F80
0FFFFC00000F80
ENDCHAR
STARTCHAR b
ENCODING 98
SWIDTH 823 0
DWIDTH 62 0
BBX 53 53 1 0
BITMAP
0FFFFFFFFFF000
0FFFFFFFFFF000
0FFFFFFFFFF000
0FFFFFFFFFF000
F007FFFFFFFF80
F007FFFFFFFF80
F007FFFFFFFF80
F007FFFFFFFF80
F007FFFFFFFF80
F0FFFFFFFFFFF8
F0FFFFFFFFFFF8
F0FFFFFFFFFFF8
F0FFFFFFFFFFF8
FFFFFFE000FFF8
FFFFFFE000FFF8
FFFFFFE000FFF8
FFFFFFE000FFF8
FFFFFFE000FFF8
FFFFFFFFFFFFF8
FFFFFFFFFFFFF8
FFFFFFFFFFFFF8
FFFFFFFFFFFFF8
FFFFFFFFFFFF80
FFFFFFFFFFFF80
FFFFFFFFFFFF80
FFFFFFFFFFFF80
FFFFFFFFFFFF80
FFFFFFFFFFFFF8
FFFFFFFFFFFFF8
FFFFFFFFFFFFF8
FFFFFFE000FFF8
FFFFFFE000FFF8
FFFFFFE000FFF8
FFFFFFE000FFF8
FFFFFFE000FFF8
FFFFFFFFFFFFF8
FFFFFFFFFFFFF8
FFFFFFFFFFFFF8
FFFFFFFFFFFFF8
FFFFFFFFFFFFF8
FFFFFFFFFFFFF8
FFFFFFFFFFFFF8
FFFFFFFFFFFFF8
FFFFFFFFFFFFF8
FFFFFFFFFFFF80
FFFFFFFFFFFF80
FFFFFFFFFFFF80
FFFFFFFFFFFF80
FFFFFFFFFFFF80
0FFFFFFFFFF000
0FFFFFFFFFF000
0FFFFFFFFFF000
0FFFFFFFFFF000
ENDCHAR
STARTCHAR c
ENCODING 99
SWIDTH 823 0
DWIDTH 62 0
BBX 53 53 1 0
BITMAP
00FFFFFFFFFF80
00FFFFFFFFFF80
00FFFFFFFFFF80
00FFFFFFFFFF80
0007FFFFFFFFF8
0007FFFFFFFFF8
0007FFFFFFFFF8
0007FFFFFFFFF8
0007FFFFFFFFF8
F0FFFFFFFFFF80
F0FFFFFFFFFF80
F0FFFFFFFFFF80
F0FFFFFFFFFF80
FFFFFFC0000000
FFFFFFC0000000
FFFFFFC0000000
FFFFFFC0000000
FFFFFFC0000000
FFFFFFC0000000
FFFFFFC0000000
FFFFFFC0000000
FFFFFFC0000000
FFFFFFC0000000
FFFFFFC0000000
FFFFFFC0000000
FFFFFFC0000000
FFFFFFC0000000
FFFFFFC0000000
FFFFFFC0000000
FFFFFFC0000000
FFFFFFC0000000
FFFFFFC0000000
FFFFFFC0000000
FFFFFFC0000000
FFFFFFC0000000
FFFFFFFFFFFF80
FFFFFFFFFFFF80
FFFFFFFFFFFF80
FFFFFFFFFFFF80
FFFFFFFFFFFF80
FFFFFFFFFFFFF8
FFFFFFFFFFFFF8
FFFFFFFFFFFFF8
FFFFFFFFFFFFF8
0FFFFFFFFFFFF8
0FFFFFFFFFFFF8
0FFFFFFFFFFFF8
0FFFFFFFFFFFF8
0FFFFFFFFFFFF8
00FFFFFFFFFF80
00FFFFFFFFFF80
00FFFFFFFFFF80
00FFFFFFFFFF80
ENDCHAR
STARTCHAR d
ENCODING 100
SWIDTH 823 0
DWIDTH 62 0
BBX 53 53 1 0
BITMAP
0FFFFFFFFF0000
0FFFFFFFFF0000
0FFFFFFFFF0000
0FFFFFFFFF0000
F007FFFFFFF000
F007FFFFFFF000
F007FFFFFFF000
F007FFFFFFF000
F007FFFFFFF000
F0FFFFFFFFFF80
F0FFFFFFFFFF80
F0FFFFFFFFFF80
F0FFFFFFFFFF80
FFFFFFE00FFFF8
FFFFFFE00FFFF8
FFFFFFE00FFFF8
FFFFFFE00FFFF8
FFFFFFE00FFFF8
FFFFFFE000FFF8
FFFFFFE000FFF8
FFFFFFE000FFF8
FFFFFFE000FFF8
FFFFFFE000FFF8
FFFFFFE000FFF8
FFFFFFE000FFF8
FFFFFFE000FFF8
FFFFFFE000FFF8
FFFFFFE000FFF8
FFFFFFE000FFF8
FFFFFFE000FFF8
FFFFFFE000FFF8
FFFFFFE00FFFF8
FFFFFFE00FFFF8
FFFFFFE00FFFF8
FFFFFFE00FFFF8
FFFFFFFFFFFFF8
FFFFFFFFFFFFF8
FFFFFFFFFFFFF8
FFFFFFFFFFFFF8
FFFFFFFFFFFFF8
FFFFFFFFFFFFF8
FFFFFFFFFFFFF8
FFFFFFFFFFFFF8
FFFFFFFFFFFFF8
FFFFFFFFFFFF80
FFFFFFFFFFFF80
FFFFFFFFFFFF80
FFFFFFFFFFFF80
FFFFFFFFFFFF80
0FFFFFFFFFF000
0FFFFFFFFFF000
0FFFFFFFFFF000
0FFFFFFFFFF000
ENDCHAR
STARTCHAR e
ENCODING 101
SWIDTH 823 0
DWIDTH 62 0
BBX 53 53 1 0
BITMAP
0FFFFFFFFFFF80
0FFFFFFFFFFF80
0FFFFFFFFFFF80
0FFFFFFFFFFF80
F007FFFFFFFFF8
F007FFFFFFFFF8
F007FFFFFFFFF8
F007FFFFFFFFF8
F007FFFFFFFFF8
F0FFFFFFFFFF80
F0FFFFFFFFFF80
F0FFFFFFFFFF80
F0FFFFFFFFFF80
FFFFFFC0000000
FFFFFFC0000000
FFFFFFC0000000
FFFFFFC0000000
FFFFFFC0000000
FFFFFFFFFFFF80
FFFFFFFFFFFF80
FFFFFFFFFFFF80
FFFFFFFFFFFF80
FFFFFFFFFFFFF8
FFFFFFFFFFFFF8
FFFFFFFFFFFFF8
FFFFFFFFFFFFF8
FFFFFFFFFFFF80
FFFFFFFFFFFF80
FFFFFFFFFFFF80
FFFFFFFFFFFF80
FFFFFFC0000000
FFFFFFC0000000
FFFFFFC0000000
FFFFFFC0000000
FFFFFFC0000000
FFFFFFFFFFFF80
FFFFFFFFFFFF80
FFFFFFFFFFFF80
FFFFFFFFFFFF80
FFFFFFFFFFFFF8
FFFFFFFFFFFFF8
FFFFFFFFFFFFF8
FFFFFFFFFFFFF8
FFFFFFFFFFFFF8
FFFFFFFFFFFFF8
FFFFFFFFFFFFF8
FFFFFFFFFFFFF8
FFFFFFFFFFFFF8
FFFFFFFFFFFFF8
0FFFFFFFFFFF80
0FFFFFFFFFFF80
0FFFFFFFFFFF80
0FFFFFFFFFFF80
ENDCHAR
STARTCHAR f
ENCODING 102
SWIDTH 823 0
DWIDTH 62 0
BBX 53 53 1 0
BITMAP
0FFFFFFFFFFF80
0FFFFFFFFFFF80
0FFFFFFFFFFF80
0FFFFFFFFFFF80
F007FFFFFFFFF8
F007FFFFFFFFF8
F007FFFFFFFFF8
F007FFFFFFFFF8
F007FFFFFFFFF8
F0FFFFFFFFFF80
F0FFFFFFFFFF80
F0FFFFFFFFFF80
F0FFFFFFFFFF80
FFFFFFC0000000
FFFFFFC0000000
FFFFFFC0000000
FFFFFFC0000000
FFFFFFC0000000
FFFFFFFFFFFF80
FFFFFFFFFFFF80
FFFFFFFFFFFF80
FFFFFFFFFFFF80
FFFFFFFFFFFFF8
FFFFFFFFFFFFF8
FFFFFFFFFFFFF8
FFFFFFFFFFFFF8
FFFFFFFFFFFFF8
FFFFFFFFFFFF80
FFFFFFFFFFFF80
FFFFFFFFFFFF80
FFFFFFFFFFFF80
FFFFFFC0000000
FFFFFFC0000000
FFFFFFC0000000
FFFFFFC0000000
FFFFFFC0000000
FFFFFFC0000000
FFFFFFC0000000
FFFFFFC0000000
FFFFFFC0000000
FFFFFFC0000000
FFFFFFC0000000
FFFFFFC0000000
FFFFFFC0000000
FFFFFFC0000000
FFFFFFC0000000
FFFFFFC0000000
FFFFFFC0000000
FFFFFFC0000000
0FFFFC00000000
0FFFFC00000000
0FFFFC00000000
0FFFFC00000000
ENDCHAR
STARTCHAR g
ENCODING 103
SWIDTH 823 0
DWIDTH 62 0
BBX 53 53 1 0
BITMAP
00FFFFFFFFFF80
00FFFFFFFFFF80
00FFFFFFFFFF80
00FFFFFFFFFF80
0007FFFFFFFFF8
0007FFFFFFFFF8
0007FFFFFFFFF8
0007FFFFFFFFF8
0007FFFFFFFFF8
F0FFFFFFFFFF80
F0FFFFFFFFFF80
F0FFFFFFFFFF80
F0FFFFFFFFFF80
FFFFFFE0000000
FFFFFFE0000000
FFFFFFE0000000
FFFFFFE0000000
FFFFFFE0000000
FFFFFFE00FFF80
FFFFFFE00FFF80
FFFFFFE00FFF80
FFFFFFE00FFF80
FFFFFFE1FFFFF8
FFFFFFE1FFFFF8
FFFFFFE1FFFFF8
FFFFFFE1FFFFF8
FFFFFFE00FFFF8
FFFFFFE00FFFF8
FFFFFFE00FFFF8
FFFFFFE00FFFF8
FFFFFFE000FFF8
FFFFFFE000FFF8
FFFFFFE000FFF8
FFFFFFE000FFF8
FFFFFFE000FFF8
FFFFFFFFFFFFF8
FFFFFFFFFFFFF8
FFFFFFFFFFFFF8
FFFFFFFFFFFFF8
FFFFFFFFFFFFF8
FFFFFFFFFFFFF8
FFFFFFFFFFFFF8
FFFFFFFFFFFFF8
FFFFFFFFFFFFF8
0FFFFFFFFFFF80
0FFFFFFFFFFF80
0FFFFFFFFFFF80
0FFFFFFFFFFF80
0FFFFFFFFFFF80
00FFFFFFFFF000
00FFFFFFFFF000
00FFFFFFFFF000
00FFFFFFFFF000
ENDCHAR
STARTCHAR h
ENCODING 104
SWIDTH 823 0
DWIDTH 62 0
BBX 53 53 1 0
BITMAP
0FFFFC0001FF80
0FFFFC0001FF80
0FFFFC0001FF80
0FFFFC0001FF80
F007FFC01FFFF8
F007FFC01FFFF8
F007FFC01FFFF8
F007FFC01FFFF8
F007FFC01FFFF8
F0FFFFC01FFFF8
F0FFFFC01FFFF8
F0FFFFC01FFFF8
F0FFFFC01FFFF8
FFFFFFC01FFFF8
FFFFFFC01FFFF8
FFFFFFC01FFFF8
FFFFFFC01FFFF8
FFFFFFC01FFFF8
FFFFFFFFFFFFF8
FFFFFFFFFFFFF8
FFFFFFFFFFFFF8
FFFFFFFFFFFFF8
FFFFFFFFFFFFF8
FFFFFFFFFFFFF8
FFFFFFFFFFFFF8
FFFFFFFFFFFFF8
FFFFFFFFFFFFF8
FFFFFFFFFFFFF8
FFFFFFFFFFFFF8
FFFFFFFFFFFFF8
FFFFFFFFFFFFF8
FFFFFFC01FFFF8
FFFFFFC01FFFF8
FFFFFFC01FFFF8
FFFFFFC01FFFF8
FFFFFFC01FFFF8
FFFFFFC01FFFF8
FFFFFFC01FFFF8
FFFFFFC01FFFF8
FFFFFFC01FFFF8
FFFFFFC01FFFF8
FFFFFFC01FFFF8
FFFFFFC01FFFF8
FFFFFFC01FFFF8
FFFFFFC01FFFF8
FFFFFFC01FFFF8
FFFFFFC01FFFF8
FFFFFFC01FFFF8
FFFFFFC01FFFF8
0FFFFC0001FF80
0FFFFC0001FF80
0FFFFC0001FF80
0FFFFC0001FF80
ENDCHAR
STARTCHAR i
ENCODING 105
SWIDTH 470 0
DWIDTH 35 0
BBX 26 53 1 0
BITMAP
0FFFFC00
0FFFFC00
0FFFFC00
0FFFFC00
F007FFC0
F007FFC0
F007FFC0
F007FFC0
F007FFC0
F0FFFFC0
F0FFFFC0
F0FFFFC0
F0FFFFC0
FFFFFFC0
FFFFFFC0
FFFFFFC0
FFFFFFC0
FFFFFFC0
FFFFFFC0
FFFFFFC0
FFFFFFC0
FFFFFFC0
FFFFFFC0
FFFFFFC0
FFFFFFC0
FFFFFFC0
FFFFFFC0
FFFFFFC0
FFFFFFC0
FFFFFFC0
FFFFFFC0
FFFFFFC0
FFFFFFC0
FFFFFFC0
FFFFFFC0
FFFFFFC0
FFFFFFC0
FFFFFFC0
FFFFFFC0
FFFFFFC0
FFFFFFC0
FFFFFFC0
FFFFFFC0
FFFFFFC0
FFFFFFC0
FFFFFFC0
FFFFFFC0
FFFFFFC0
FFFFFFC0
0FFFFC00
0FFFFC00
0FFFFC00
0FFFFC00
ENDCHAR
STARTCHAR j
ENCODING 106
SWIDTH 823 0
DWIDTH 62 0
BBX 53 53 1 0
BITMAP
00000001FFFF80
00000001FFFF80
00000001FFFF80
00000001FFFF80
0000003E00FFF8
0000003E00FFF8
0000003E00FFF8
0000003E00FFF8
0000003E00FFF8
0000003E1FFFF8
0000003E1FFFF8
0000003E1FFFF8
0000003E1FFFF8
0000003FFFFFF8
0000003FFFFFF8
0000003FFFFFF8
0000003FFFFFF8
0000003FFFFFF8
0000003FFFFFF8
0000003FFFFFF8
0000003FFFFFF8
0000003FFFFFF8
0FF8003FFFFFF8
0FF8003FFFFFF8
0FF8003FFFFFF8
0FF8003FFFFFF8
0FF8003FFFFFF8
FFFF803FFFFFF8
FFFF803FFFFFF8
FFFF803FFFFFF8
FFFF803FFFFFF8
FFFF803FFFFFF8
FFFF803FFFFFF8
FFFF803FFFFFF8
FFFF803FFFFFF8
FFFFFFFFFFFFF8
FFFFFFFFFFFFF8
FFFFFFFFFFFFF8
FFFFFFFFFFFFF8
FFFFFFFFFFFFF8
FFFFFFFFFFFFF8
FFFFFFFFFFFFF8
FFFFFFFFFFFFF8
FFFFFFFFFFFFF8
0FFFFFFFFFFF80
0FFFFFFFFFFF80
0FFFFFFFFFFF80
0FFFFFFFFFFF80
0FFFFFFFFFFF80
007FFFFFFFF000
007FFFFFFFF000
007FFFFFFFF000
007FFFFFFFF000
ENDCHAR
STARTCHAR k
ENCODING 107
SWIDTH 823 0
DWIDTH 62 0
BBX 53 53 1 0
BITMAP
0FFFFC0000FF80
0FFFFC0000FF80
0FFFFC0000FF80
0FFFFC0000FF80
F007FFE00FFFF8
F007FFE00FFFF8
F007FFE00FFFF8
F007FFE00FFFF8
F007FFE00FFFF8
F0FFFFE1FFFFF8
F0FFFFE1FFFFF8
F0FFFFE1FFFFF8
F0FFFFE1FFFFF8
FFFFFFFFFFFF80
FFFFFFFFFFFF80
FFFFFFFFFFFF80
FFFFFFFFFFFF80
FFFFFFFFFFFF80
FFFFFFFFFFF000
FFFFFFFFFFF000
FFFFFFFFFFF000
FFFFFFFFFFF000
FFFFFFFFFF0000
FFFFFFFFFF0000
FFFFFFFFFF0000
FFFFFFFFFF0000
FFFFFFFFFF0000
FFFFFFFFFFF000
FFFFFFFFFFF000
FFFFFFFFFFF000
FFFFFFFFFFF000
FFFFFFFFFFFF80
FFFFFFFFFFFF80
FFFFFFFFFFFF80
FFFFFFFFFFFF80
FFFFFFFFFFFF80
FFFFFFFFFFFFF8
FFFFFFFFFFFFF8
FFFFFFFFFFFFF8
FFFFFFFFFFFFF8
FFFFFFE1FFFFF8
FFFFFFE1FFFFF8
FFFFFFE1FFFFF8
FFFFFFE1FFFFF8
FFFFFFE00FFFF8
FFFFFFE00FFFF8
FFFFFFE00FFFF8
FFFFFFE00FFFF8
FFFFFFE00FFFF8
0FFFFC0000FF80
0FFFFC0000FF80
0FFFFC0000FF80
0FFFFC0000FF80
ENDCHAR
STARTCHAR l
ENCODING 108
SWIDTH 764 0
DWIDTH 57 0
BBX 49 53 1 0
BITMAP
0FFFFC00000000
0FFFFC00000000
0FFFFC00000000
0FFFFC00000000
F007FFC0000000
F007FFC0000000
F007FFC0000000
F007FFC0000000
F007FFC0000000
F0FFFFC0000000
F0FFFFC0000000
F0FFFFC0000000
F0FFFFC0000000
FFFFFFC0000000
FFFFFFC0000000
FFFFFFC0000000
FFFFFFC0000000
FFFFFFC0000000
FFFFFFC0000000
FFFFFFC0000000
FFFFFFC0000000
FFFFFFC0000000
FFFFFFC0000000
FFFFFFC0000000
FFFFFFC0000000
FFFFFFC0000000
FFFFFFC0000000
FFFFFFC0000000
FFFFFFC0000000
FFFFFFC0000000
FFFFFFC0000000
FFFFFFC0000000
FFFFFFC0000000
FFFFFFC0000000
FFFFFFC0000000
FFFFFFFFFFF000
FFFFFFFFFFF000
FFFFFFFFFFF000
FFFFFFFFFFF000
FFFFFFFFFFF000
FFFFFFFFFFFF80
FFFFFFFFFFFF80
FFFFFFFFFFFF80
FFFFFFFFFFFF80
FFFFFFFFFFFF80
FFFFFFFFFFFF80
FFFFFFFFFFFF80
FFFFFFFFFFFF80
FFFFFFFFFFFF80
0FFFFFFFFFF000
0FFFFFFFFFF000
0FFFFFFFFFF000
0FFFFFFFFFF000
ENDCHAR
STARTCHAR m
ENCODING 109
SWIDTH 882 0
DWIDTH 66 0
BBX 57 53 1 0
BITMAP
0FFFFC000007F800
0FFFFC000007F800
0FFFFC000007F800
0FFFFC000007F800
F007FFE000FFFF80
F007FFE000FFFF80
F007FFE000FFFF80
F007FFE000FFFF80
F007FFE000FFFF80
F0FFFFE000FFFF80
F0FFFFE000FFFF80
F0FFFFE000FFFF80
F0FFFFE000FFFF80
FFFFFFFE0FFFFF80
FFFFFFFE0FFFFF80
FFFFFFFE0FFFFF80
FFFFFFFE0FFFFF80
FFFFFFFE0FFFFF80
FFFFFFFFFFFFFF80
FFFFFFFFFFFFFF80
FFFFFFFFFFFFFF80
FFFFFFFFFFFFFF80
FFFFFFFFFFFFFF80
FFFFFFFFFFFFFF80
FFFFFFFFFFFFFF80
FFFFFFFFFFFFFF80
FFFFFFFFFFFFFF80
FFFFFFFFFFFFFF80
FFFFFFFFFFFFFF80
FFFFFFFFFFFFFF80
FFFFFFFFFFFFFF80
FFFFFFE1F0FFFF80
FFFFFFE1F0FFFF80
FFFFFFE1F0FFFF80
FFFFFFE1F0FFFF80
FFFFFFE000FFFF80
FFFFFFE000FFFF80
FFFFFFE000FFFF80
FFFFFFE000FFFF80
FFFFFFE000FFFF80
FFFFFFE000FFFF80
FFFFFFE000FFFF80
FFFFFFE000FFFF80
FFFFFFE000FFFF80
FFFFFFE000FFFF80
FFFFFFE000FFFF80
FFFFFFE000FFFF80
FFFFFFE000FFFF80
FFFFFFE000FFFF80
0FFFFC000007F800
0FFFFC000007F800
0FFFFC000007F800
0FFFFC000007F800
ENDCHAR
STARTCHAR n
ENCODING 110
SWIDTH 823 0
DWIDTH 62 0
BBX 53 53 1 0
BITMAP
0FFFFE0001FF80
0FFFFE0001FF80
0FFFFE0001FF80
0FFFFE0001FF80
F007FFE01FFFF8
F007FFE01FFFF8
F007FFE01FFFF8
F007FFE01FFFF8
F007FFE01FFFF8
F0FFFFE01FFFF8
F0FFFFE01FFFF8
F0FFFFE01FFFF8
F0FFFFE01FFFF8
FFFFFFFE1FFFF8
FFFFFFFE1FFFF8
FFFFFFFE1FFFF8
FFFFFFFE1FFFF8
FFFFFFFE1FFFF8
FFFFFFFFFFFFF8
FFFFFFFFFFFFF8
FFFFFFFFFFFFF8
FFFFFFFFFFFFF8
FFFFFFFFFFFFF8
FFFFFFFFFFFFF8
FFFFFFFFFFFFF8
FFFFFFFFFFFFF8
FFFFFFFFFFFFF8
FFFFFFE1FFFFF8
FFFFFFE1FFFFF8
FFFFFFE1FFFFF8
FFFFFFE1FFFFF8
FFFFFFE01FFFF8
FFFFFFE01FFFF8
FFFFFFE01FFFF8
FFFFFFE01FFFF8
FFFFFFE01FFFF8
FFFFFFE01FFFF8
FFFFFFE01FFFF8
FFFFFFE01FFFF8
FFFFFFE01FFFF8
FFFFFFE01FFFF8
FFFFFFE01FFFF8
FFFFFFE01FFFF8
FFFFFFE01FFFF8
FFFFFFE01FFFF8
FFFFFFE01FFFF8
FFFFFFE01FFFF8
FFFFFFE01FFFF8
FFFFFFE01FFFF8
0FFFFE0001FF80
0FFFFE0001FF80
0FFFFE0001FF80
0FFFFE0001FF80
ENDCHAR
STARTCHAR o
ENCODING 111
SWIDTH 823 0
DWIDTH 62 0
BBX 53 53 1 0
BITMAP
00FFFFFFFFF000
00FFFFFFFFF000
00FFFFFFFFF000
00FFFFFFFFF000
0007FFFFFFFF80
0007FFFFFFFF80
0007FFFFFFFF80
0007FFFFFFFF80
0007FFFFFFFF80
F0FFFFFFFFFFF8
F0FFFFFFFFFFF8
F0FFFFFFFFFFF8
F0FFFFFFFFFFF8
FFFFFFE000FFF8
FFFFFFE000FFF8
FFFFFFE000FFF8
FFFFFFE000FFF8
FFFFFFE000FFF8
FFFFFFE000FFF8
FFFFFFE000FFF8
FFFFFFE000FFF8
FFFFFFE000FFF8
FFFFFFE000FFF8
FFFFFFE000FFF8
FFFFFFE000FFF8
FFFFFFE000FFF8
FFFFFFE000FFF8
FFFFFFE000FFF8
FFFFFFE000FFF8
FFFFFFE000FFF8
FFFFFFE000FFF8
FFFFFFE000FFF8
FFFFFFE000FFF8
FFFFFFE000FFF8
FFFFFFE000FFF8
FFFFFFFFFFFFF8
FFFFFFFFFFFFF8
FFFFFFFFFFFFF8
FFFFFFFFFFFFF8
FFFFFFFFFFFFF8
FFFFFFFFFFFFF8
FFFFFFFFFFFFF8
FFFFFFFFFFFFF8
FFFFFFFFFFFFF8
0FFFFFFFFFFF80
0FFFFFFFFFFF80
0FFFFFFFFFFF80
0FFFFFFFFFFF80
0FFFFFFFFFFF80
00FFFFFFFFF000
00FFFFFFFFF000
00FFFFFFFFF000
00FFFFFFFFF000
ENDCHAR
STARTCHAR p
ENCODING 112
SWIDTH 823 0
DWIDTH 62 0
BBX 53 53 1 0
BITMAP
0FFFFFFFFFF000
0FFFFFFFFFF000
0FFFFFFFFFF000
0FFFFFFFFFF000
F007FFFFFFFF80
F007FFFFFFFF80
F007FFFFFFFF80
F007FFFFFFFF80
F007FFFFFFFF80
F0FFFFFFFFFFF8
F0FFFFFFFFFFF8
F0FFFFFFFFFFF8
F0FFFFFFFFFFF8
FFFFFFC01FFFF8
FFFFFFC01FFFF8
FFFFFFC01FFFF8
FFFFFFC01FFFF8
FFFFFFC01FFFF8
FFFFFFC01FFFF8
FFFFFFC01FFFF8
FFFFFFC01FFFF8
FFFFFFC01FFFF8
FFFFFFC01FFFF8
FFFFFFC01FFFF8
FFFFFFC01FFFF8
FFFFFFC01FFFF8
FFFFFFFFFFFF80
FFFFFFFFFFFF80
FFFFFFFFFFFF80
FFFFFFFFFFFF80
FFFFFFFFFFFF80
FFFFFFFFFFF000
FFFFFFFFFFF000
FFFFFFFFFFF000
FFFFFFFFFFF000
FFFFFFC0000000
FFFFFFC0000000
FFFFFFC0000000
FFFFFFC0000000
FFFFFFC0000000
FFFFFFC0000000
FFFFFFC0000000
FFFFFFC0000000
FFFFFFC0000000
FFFFFFC0000000
FFFFFFC0000000
FFFFFFC0000000
FFFFFFC0000000
FFFFFFC0000000
0FFFFC00000000
0FFFFC00000000
0FFFFC00000000
0FFFFC00000000
ENDCHAR
STARTCHAR q
ENCODING 113
SWIDTH 823 0
DWIDTH 62 0
BBX 53 62 1 -9
BITMAP
00FFFFFFFFF000
00FFFFFFFFF000
00FFFFFFFFF000
00FFFFFFFFF000
0007FFFFFFFF80
0007FFFFFFFF80
0007FFFFFFFF80
0007FFFFFFFF80
0007FFFFFFFF80
F0FFFFFFFFFFF8
F0FFFFFFFFFFF8
F0FFFFFFFFFFF8
F0FFFFFFFFFFF8
FFFFFFE000FFF8
FFFFFFE000FFF8
FFFFFFE000FFF8
FFFFFFE000FFF8
FFFFFFE000FFF8
FFFFFFE000FFF8
FFFFFFE000FFF8
FFFFFFE000FFF8
FFFFFFE000FFF8
FFFFFFE000FFF8
FFFFFFE000FFF8
FFFFFFE000FFF8
FFFFFFE000FFF8
FFFFFFE000FFF8
FFFFFFE000FFF8
FFFFFFE000FFF8
FFFFFFE000FFF8
FFFFFFE000FFF8
FFFFFFE000FFF8
FFFFFFE000FFF8
FFFFFFE000FFF8
FFFFFFE000FFF8
FFFFFFFFFFFFF8
FFFFFFFFFFFFF8
FFFFFFFFFFFFF8
FFFFFFFFFFFFF8
FFFFFFFFFFFFF8
FFFFFFFFFFFFF8
FFFFFFFFFFFFF8
FFFFFFFFFFFFF8
FFFFFFFFFFFFF8
0FFFFFFFFFFF80
0FFFFFFFFFFF80
0FFFFFFFFFFF80
0FFFFFFFFFFF80
0FFFFFFFFFFF80
00FFFFFFFFF000
00FFFFFFFFF000
00FFFFFFFFF000
00FFFFFFFFF000
0000001FFFF000
0000001FFFF000
0000001FFFF000
0000001FFFF000
00000001FFF000
00000001FFF000
00000001FFF000
00000001FFF000
00000001FFF000
ENDCHAR
STARTCHAR r
ENCODING 114
SWIDTH 823 0
DWIDTH 62 0
BBX 53 53 1 0
BITMAP
0FFFFFFFFFF000
0FFFFFFFFFF000
0FFFFFFFFFF000
0FFFFFFFFFF000
F007FFFFFFFF80
F007FFFFFFFF80
F007FFFFFFFF80
F007FFFFFFFF80
F007FFFFFFFF80
F0FFFFFFFFFFF8
F0FFFFFFFFFFF8
F0FFFFFFFFFFF8
F0FFFFFFFFFFF8
FFFFFFE000FFF8
FFFFFFE000FFF8
FFFFFFE000FFF8
FFFFFFE000FFF8
FFFFFFE000FFF8
FFFFFFFFFFFFF8
FFFFFFFFFFFFF8
FFFFFFFFFFFFF8
FFFFFFFFFFFFF8
FFFFFFFFFFFF80
FFFFFFFFFFFF80
FFFFFFFFFFFF80
FFFFFFFFFFFF80
FFFFFFFFFFF000
FFFFFFFFFFF000
FFFFFFFFFFF000
FFFFFFFFFFF000
FFFFFFFFFFF000
FFFFFFFFFFFF80
FFFFFFFFFFFF80
FFFFFFFFFFFF80
FFFFFFFFFFFF80
FFFFFFE1FFFFF8
FFFFFFE1FFFFF8
FFFFFFE1FFFFF8
FFFFFFE1FFFFF8
FFFFFFE1FFFFF8
FFFFFFE00FFFF8
FFFFFFE00FFFF8
FFFFFFE00FFFF8
FFFFFFE00FFFF8
FFFFFFE000FFF8
FFFFFFE000FFF8
FFFFFFE000FFF8
FFFFFFE000FFF8
FFFFFFE000FFF8
0FFFFC00000F80
0FFFFC00000F80
0FFFFC00000F80
0FFFFC00000F80
ENDCHAR
STARTCHAR s
ENCODING 115
SWIDTH 823 0
DWIDTH 62 0
BBX 53 53 1 0
BITMAP
00FFFFFFFFFF80
00FFFFFFFFFF80
00FFFFFFFFFF80
00FFFFFFFFFF80
0007FFFFFFFFF8
0007FFFFFFFFF8
0007FFFFFFFFF8
0007FFFFFFFFF8
0007FFFFFFFFF8
F0FFFFFFFFFF80
F0FFFFFFFFFF80
F0FFFFFFFFFF80
F0FFFFFFFFFF80
FFFFFFC0000000
FFFFFFC0000000
FFFFFFC0000000
FFFFFFC0000000
FFFFFFC0000000
FFFFFFFFFFFF80
FFFFFFFFFFFF80
FFFFFFFFFFFF80
FFFFFFFFFFFF80
0FFFFFFFFFFFF8
0FFFFFFFFFFFF8
0FFFFFFFFFFFF8
0FFFFFFFFFFFF8
000000001FFFF8
000000001FFFF8
000000001FFFF8
000000001FFFF8
000000001FFFF8
0FFFFFFFFFFFF8
0FFFFFFFFFFFF8
0FFFFFFFFFFFF8
0FFFFFFFFFFFF8
FFFFFFFFFFFFF8
FFFFFFFFFFFFF8
FFFFFFFFFFFFF8
FFFFFFFFFFFFF8
FFFFFFFFFFFFF8
FFFFFFFFFFFFF8
FFFFFFFFFFFFF8
FFFFFFFFFFFFF8
FFFFFFFFFFFFF8
FFFFFFFFFFFF80
FFFFFFFFFFFF80
FFFFFFFFFFFF80
FFFFFFFFFFFF80
FFFFFFFFFFFF80
0FFFFFFFFFF000
0FFFFFFFFFF000
0FFFFFFFFFF000
0FFFFFFFFFF000
ENDCHAR
STARTCHAR t
ENCODING 116
SWIDTH 823 0
DWIDTH 62 0
BBX 53 53 1 0
BITMAP
0FFFFFFFFFFF80
0FFFFFFFFFFF80
0FFFFFFFFFFF80
0FFFFFFFFFFF80
F007FFFFFFFFF8
F007FFFFFFFFF8
F007FFFFFFFFF8
F007FFFFFFFFF8
F007FFFFFFFFF8
F0FFFFFFFFFFF8
F0FFFFFFFFFFF8
F0FFFFFFFFFFF8
F0FFFFFFFFFFF8
0FFFFFFFFFFF80
0FFFFFFFFFFF80
0FFFFFFFFFFF80
0FFFFFFFFFFF80
0FFFFFFFFFFF80
0007FFFFFF0000
0007FFFFFF0000
0007FFFFFF0000
0007FFFFFF0000
0007FFFFFF0000
0007FFFFFF0000
0007FFFFFF0000
0007FFFFFF0000
0007FFFFFF0000
0007FFFFFF0000
0007FFFFFF0000
0007FFFFFF0000
0007FFFFFF0000
0007FFFFFF0000
0007FFFFFF0000
0007FFFFFF0000
0007FFFFFF0000
0007FFFFFF0000
0007FFFFFF0000
0007FFFFFF0000
0007FFFFFF0000
0007FFFFFF0000
0007FFFFFF0000
0007FFFFFF0000
0007FFFFFF0000
0007FFFFFF0000
0007FFFFFF0000
0007FFFFFF0000
0007FFFFFF0000
0007FFFFFF0000
0007FFFFFF0000
00003FFFE00000
00003FFFE00000
00003FFFE00000
00003FFFE00000
ENDCHAR
STARTCHAR u
ENCODING 117
SWIDTH 823 0
DWIDTH 62 0
BBX 53 53 1 0
BITMAP
0FFFFC0001FF80
0FFFFC0001FF80
0FFFFC0001FF80
0FFFFC0001FF80
F007FFC01FFFF8
F007FFC01FFFF8
F007FFC01FFFF8
F007FFC01FFFF8
F007FFC01FFFF8
F0FFFFC01FFFF8
F0FFFFC01FFFF8
F0FFFFC01FFFF8
F0FFFFC01FFFF8
FFFFFFC01FFFF8
FFFFFFC01FFFF8
FFFFFFC01FFFF8
FFFFFFC01FFFF8
FFFFFFC01FFFF8
FFFFFFC01FFFF8
FFFFFFC01FFFF8
FFFFFFC01FFFF8
FFFFFFC01FFFF8
FFFFFFC01FFFF8
FFFFFFC01FFFF8
FFFFFFC01FFFF8
FFFFFFC01FFFF8
FFFFFFC01FFFF8
FFFFFFC01FFFF8
FFFFFFC01FFFF8
FFFFFFC01FFFF8
FFFFFFC01FFFF8
FFFFFFC01FFFF8
FFFFFFC01FFFF8
FFFFFFC01FFFF8
FFFFFFC01FFFF8
FFFFFFFFFFFFF8
FFFFFFFFFFFFF8
FFFFFFFFFFFFF8
FFFFFFFFFFFFF8
FFFFFFFFFFFFF8
FFFFFFFFFFFFF8
FFFFFFFFFFFFF8
FFFFFFFFFFFFF8
FFFFFFFFFFFFF8
0FFFFFFFFFFF80
0FFFFFFFFFFF80
0FFFFFFFFFFF80
0FFFFFFFFFFF80
0FFFFFFFFFFF80
00FFFFFFFFF000
00FFFFFFFFF000
00FFFFFFFFF000
00FFFFFFFFF000
ENDCHAR
STARTCHAR v
ENCODING 118
SWIDTH 823 0
DWIDTH 62 0
BBX 53 53 1 0
BITMAP
0FFFFE0000FF80
0FFFFE0000FF80
0FFFFE0000FF80
0FFFFE0000FF80
F007FFE00FFFF8
F007FFE00FFFF8
F007FFE00FFFF8
F007FFE00FFFF8
F007FFE00FFFF8
F0FFFFE00FFFF8
F0FFFFE00FFFF8
F0FFFFE00FFFF8
F0FFFFE00FFFF8
FFFFFFE00FFFF8
FFFFFFE00FFFF8
FFFFFFE00FFFF8
FFFFFFE00FFFF8
FFFFFFE00FFFF8
FFFFFFE00FFFF8
FFFFFFE00FFFF8
FFFFFFE00FFFF8
FFFFFFE00FFFF8
FFFFFFE00FFFF8
FFFFFFE00FFFF8
FFFFFFE00FFFF8
FFFFFFE00FFFF8
FFFFFFE00FFFF8
FFFFFFE1FFFFF8
FFFFFFE1FFFFF8
FFFFFFE1FFFFF8
FFFFFFE1FFFFF8
FFFFFFFFFFFF80
FFFFFFFFFFFF80
FFFFFFFFFFFF80
FFFFFFFFFFFF80
FFFFFFFFFFF000
FFFFFFFFFFF000
FFFFFFFFFFF000
FFFFFFFFFFF000
FFFFFFFFFFF000
FFFFFFFFFF0000
FFFFFFFFFF0000
FFFFFFFFFF0000
FFFFFFFFFF0000
0FFFFFFFF00000
0FFFFFFFF00000
0FFFFFFFF00000
0FFFFFFFF00000
0FFFFFFFF00000
00FFFFFE000000
00FFFFFE000000
00FFFFFE000000
00FFFFFE000000
ENDCHAR
STARTCHAR w
ENCODING 119
SWIDTH 882 0
DWIDTH 66 0
BBX 57 53 1 0
BITMAP
0FFFFC00000FF800
0FFFFC00000FF800
0FFFFC00000FF800
0FFFFC00000FF800
F007FFE001FFFF80
F007FFE001FFFF80
F007FFE001FFFF80
F007FFE001FFFF80
F007FFE001FFFF80
F0FFFFE001FFFF80
F0FFFFE001FFFF80
F0FFFFE001FFFF80
F0FFFFE001FFFF80
FFFFFFE001FFFF80
FFFFFFE001FFFF80
FFFFFFE001FFFF80
FFFFFFE001FFFF80
FFFFFFE001FFFF80
FFFFFFE001FFFF80
FFFFFFE001FFFF80
FFFFFFE001FFFF80
FFFFFFE001FFFF80
FFFFFFE1E1FFFF80
FFFFFFE1E1FFFF80
FFFFFFE1E1FFFF80
FFFFFFE1E1FFFF80
FFFFFFE1E1FFFF80
FFFFFFFFFFFFFF80
FFFFFFFFFFFFFF80
FFFFFFFFFFFFFF80
FFFFFFFFFFFFFF80
FFFFFFFFFFFFFF80
FFFFFFFFFFFFFF80
FFFFFFFFFFFFFF80
FFFFFFFFFFFFFF80
FFFFFFFFFFFFFF80
FFFFFFFFFFFFFF80
FFFFFFFFFFFFFF80
FFFFFFFFFFFFFF80
FFFFFFFFFFFFFF80
FFFFFFFE1FFFFF80
FFFFFFFE1FFFFF80
FFFFFFFE1FFFFF80
FFFFFFFE1FFFFF80
FFFFFFE001FFFF80
FFFFFFE001FFFF80
FFFFFFE001FFFF80
FFFFFFE001FFFF80
FFFFFFE001FFFF80
0FFFFC00000FF800
0FFFFC00000FF800
0FFFFC00000FF800
0FFFFC00000FF800
ENDCHAR
STARTCHAR x
ENCODING 120
SWIDTH 823 0
DWIDTH 62 0
BBX 53 53 1 0
BITMAP
0FF800001FFF80
0FF800001FFF80
0FF800001FFF80
0FF800001FFF80
F007E001FFFFF8
F007E001FFFFF8
F007E001FFFFF8
F007E001FFFFF8
F007E001FFFFF8
F0FFFE1FFFFFF8
F0FFFE1FFFFFF8
F0FFFE1FFFFFF8
F0FFFE1FFFFFF8
FFFFFFFFFFFF80
FFFFFFFFFFFF80
FFFFFFFFFFFF80
FFFFFFFFFFFF80
FFFFFFFFFFFF80
0FFFFFFFFFF000
0FFFFFFFFFF000
0FFFFFFFFFF000
0FFFFFFFFFF000
00FFFFFFFF0000
00FFFFFFFF0000
00FFFFFFFF0000
00FFFFFFFF0000
00FFFFFFFF0000
0007FFFFFFF000
0007FFFFFFF000
0007FFFFFFF000
0007FFFFFFF000
0007FFFFFFF000
00FFFFFFFFFF80
00FFFFFFFFFF80
00FFFFFFFFFF80
00FFFFFFFFFF80
0FFFFFFFFFFFF8
0FFFFFFFFFFFF8
0FFFFFFFFFFFF8
0FFFFFFFFFFFF8
0FFFFFE1FFFFF8
FFFFFFE1FFFFF8
FFFFFFE1FFFFF8
FFFFFFE1FFFFF8
FFFFFE001FFFF8
FFFFFE001FFFF8
FFFFFE001FFFF8
FFFFFE001FFFF8
FFFFFE001FFFF8
0FFFE00000FF80
0FFFE00000FF80
0FFFE00000FF80
0FFFE00000FF80
ENDCHAR
STARTCHAR y
ENCODING 121
SWIDTH 823 0
DWIDTH 62 0
BBX 53 53 1 0
BITMAP
0FFFC0001FFF80
0FFFC0001FFF80
0FFFC0001FFF80
0FFFC0001FFF80
F007FC01FFFFF8
F007FC01FFFFF8
F007FC01FFFFF8
F007FC01FFFFF8
F007FC01FFFFF8
F0FFFFFFFFFFF8
F0FFFFFFFFFFF8
F0FFFFFFFFFFF8
F0FFFFFFFFFFF8
0FFFFFFFFFFF80
0FFFFFFFFFFF80
0FFFFFFFFFFF80
0FFFFFFFFFFF80
0FFFFFFFFFFF80
00FFFFFFFFF000
00FFFFFFFFF000
00FFFFFFFFF000
00FFFFFFFFF000
0007FFFFFF0000
0007FFFFFF0000
0007FFFFFF0000
0007FFFFFF0000
0007FFFFFF0000
00003FFFFF0000
00003FFFFF0000
00003FFFFF0000
00003FFFFF0000
00003FFFFF0000
00003FFFFF0000
00003FFFFF0000
00003FFFFF0000
00003FFFFF0000
00003FFFFF0000
00003FFFFF0000
00003FFFFF0000
00003FFFFF0000
00003FFFFF0000
00003FFFFF0000
00003FFFFF0000
00003FFFFF0000
00003FFFFF0000
00003FFFFF0000
00003FFFFF0000
00003FFFFF0000
00003FFFFF0000
000003FFE00000
000003FFE00000
000003FFE00000
000003FFE00000
ENDCHAR
STARTCHAR z
ENCODING 122
SWIDTH 823 0
DWIDTH 62 0
BBX 53 53 1 0
BITMAP
0FFFFFFFFFFF80
0FFFFFFFFFFF80
0FFFFFFFFFFF80
0FFFFFFFFFFF80
F007FFFFFFFFF8
F007FFFFFFFFF8
F007FFFFFFFFF8
F007FFFFFFFFF8
F007FFFFFFFFF8
F0FFFFFFFFFFF8
F0FFFFFFFFFFF8
F0FFFFFFFFFFF8
F0FFFFFFFFFFF8
0FFFFFFFFFFF80
0FFFFFFFFFFF80
0FFFFFFFFFFF80
0FFFFFFFFFFF80
0FFFFFFFFFFF80
000003FFFFF000
000003FFFFF000
000003FFFFF000
000003FFFFF000
000003FFFFF000
00003FFFFF0000
00003FFFFF0000
00003FFFFF0000
0007FFFFE00000
0007FFFFE00000
0007FFFFE00000
0007FFFFE00000
0007FFFFE00000
00FFFFFFFFFF80
00FFFFFFFFFF80
00FFFFFFFFFF80
00FFFFFFFFFF80
0FFFFFFFFFFFF8
0FFFFFFFFFFFF8
0FFFFFFFFFFFF8
0FFFFFFFFFFFF8
0FFFFFFFFFFFF8
FFFFFFFFFFFFF8
FFFFFFFFFFFFF8
FFFFFFFFFFFFF8
FFFFFFFFFFFFF8
FFFFFFFFFFFFF8
FFFFFFFFFFFFF8
FFFFFFFFFFFFF8
FFFFFFFFFFFFF8
FFFFFFFFFFFFF8
0FFFFFFFFFFF80
0FFFFFFFFFFF80
0FFFFFFFFFFF80
0FFFFFFFFFFF80
ENDCHAR
STARTCHAR braceleft
ENCODING 123
SWIDTH 647 0
DWIDTH 49 0
BBX 40 62 1 0
BITMAP
00007FFFE0
00007FFFE0
00007FFFE0
00007FFFE0
00007FFFE0
000003FFFF
000003FFFF
000003FFFF
000003FFFF
000003FFFF
00787FFFFF
00787FFFFF
00787FFFFF
007FFFFFE0
007FFFFFE0
007FFFFFE0
007FFFFFE0
007FFFFFE0
007FFFFE00
007FFFFE00
007FFFFE00
007FFFFE00
0FFFFFFE00
0FFFFFFE00
0FFFFFFE00
0FFFFFFE00
0FFFFFFE00
FFFFFFFE00
FFFFFFFE00
FFFFFFFE00
FFFFFFFE00
FFFFFFFE00
FFFFFFFE00
FFFFFFFE00
FFFFFFFE00
FFFFFFFE00
0FFFFFFE00
0FFFFFFE00
0FFFFFFE00
0FFFFFFE00
007FFFFE00
007FFFFE00
007FFFFE00
007FFFFE00
007FFFFFE0
007FFFFFE0
007FFFFFE0
007FFFFFE0
007FFFFFE0
007FFFFFFF
007FFFFFFF
007FFFFFFF
007FFFFFFF
0007FFFFFF
0007FFFFFF
0007FFFFFF
0007FFFFFF
0007FFFFFF
00007FFFE0
00007FFFE0
00007FFFE0
00007FFFE0
ENDCHAR
STARTCHAR bar
ENCODING 124
SWIDTH 529 0
DWIDTH 40 0
BBX 31 62 1 0
BITMAP
0FFFFFC0
0FFFFFC0
0FFFFFC0
0FFFFFC0
0FFFFFC0
F007FFFE
F007FFFE
F007FFFE
F007FFFE
F007FFFE
F0FFFFFE
F0FFFFFE
F0FFFFFE
F0FFFFFE
FFFFFFFE
FFFFFFFE
FFFFFFFE
FFFFFFFE
FFFFFFFE
FFFFFFFE
FFFFFFFE
FFFFFFFE
FFFFFFFE
FFFFFFFE
FFFFFFFE
FFFFFFFE
FFFFFFFE
FFFFFFFE
FFFFFFFE
FFFFFFFE
FFFFFFFE
FFFFFFFE
FFFFFFFE
FFFFFFFE
FFFFFFFE
FFFFFFFE
FFFFFFFE
FFFFFFFE
FFFFFFFE
FFFFFFFE
FFFFFFFE
FFFFFFFE
FFFFFFFE
FFFFFFFE
FFFFFFFE
FFFFFFFE
FFFFFFFE
FFFFFFFE
FFFFFFFE
FFFFFFFE
FFFFFFFE
FFFFFFFE
FFFFFFFE
FFFFFFFE
FFFFFFFE
FFFFFFFE
FFFFFFFE
FFFFFFFE
0FFFFFC0
0FFFFFC0
0FFFFFC0
0FFFFFC0
ENDCHAR
STARTCHAR braceright
ENCODING 125
SWIDTH 647 0
DWIDTH 49 0
BBX 40 62 1 0
BITMAP
0FFFFC0000
0FFFFC0000
0FFFFC0000
0FFFFC0000
0FFFFC0000
F007FFC000
F007FFC000
F007FFC000
F007FFC000
F007FFC000
F0FFFFFE00
F0FFFFFE00
F0FFFFFE00
F0FFFFFE00
0FFFFFFE00
0FFFFFFE00
0FFFFFFE00
0FFFFFFE00
00FFFFFE00
00FFFFFE00
00FFFFFE00
00FFFFFE00
00FFFFFFE0
00FFFFFFE0
00FFFFFFE0
00FFFFFFE0
00FFFFFFE0
00FFFFFFFF
00FFFFFFFF
00FFFFFFFF
00FFFFFFFF
00FFFFFFFF
00FFFFFFFF
00FFFFFFFF
00FFFFFFFF
00FFFFFFFF
00FFFFFFE0
00FFFFFFE0
00FFFFFFE0
00FFFFFFE0
00FFFFFE00
00FFFFFE00
00FFFFFE00
00FFFFFE00
0FFFFFFE00
0FFFFFFE00
0FFFFFFE00
0FFFFFFE00
0FFFFFFE00
FFFFFFFE00
FFFFFFFE00
FFFFFFFE00
FFFFFFFE00
FFFFFFC000
FFFFFFC000
FFFFFFC000
FFFFFFC000
FFFFFFC000
0FFFFC0000
0FFFFC0000
0FFFFC0000
0FFFFC0000
ENDCHAR
STARTCHAR asciitilde
ENCODING 126
SWIDTH 588 0
DWIDTH 44 0
BBX 35 22 1 35
BITMAP
0FFFFFFE00
0FFFFFFE00
0FFFFFFE00
0FFFFFFE00
F007FFFFE0
F007FFFFE0
F007FFFFE0
F007FFFFE0
F007FFFFE0
F0FFFFFFE0
F0FFFFFFE0
F0FFFFFFE0
F0FFFFFFE0
FFFFFFFFE0
FFFFFFFFE0
FFFFFFFFE0
FFFFFFFFE0
0FFFFFFE00
0FFFFFFE00
0FFFFFFE00
0FFFFFFE00
0FFFFFFE00
ENDCHAR
STARTCHAR nonbreakingspace
ENCODING 160
SWIDTH 833 0
DWIDTH 63 0
BBX 1 1 0 0
BITMAP
00
ENDCHAR
STARTCHAR hyphen.dup1
ENCODING 8208
SWIDTH 823 0
DWIDTH 62 0
BBX 53 22 1 18
BITMAP
0FFFFFFFFFFF80
0FFFFFFFFFFF80
0FFFFFFFFFFF80
0FFFFFFFFFFF80
0FFFFFFFFFFF80
F007FFFFFFFFF8
F007FFFFFFFFF8
F007FFFFFFFFF8
F007FFFFFFFFF8
F007FFFFFFFFF8
F0FFFFFFFFFFF8
F0FFFFFFFFFFF8
F0FFFFFFFFFFF8
F0FFFFFFFFFFF8
FFFFFFFFFFFFF8
FFFFFFFFFFFFF8
FFFFFFFFFFFFF8
FFFFFFFFFFFFF8
0FFFFFFFFFFF80
0FFFFFFFFFFF80
0FFFFFFFFFFF80
0FFFFFFFFFFF80
ENDCHAR
STARTCHAR .notdef
ENCODING -1
SWIDTH 500 0
DWIDTH 38 0
BBX 28 66 5 0
BITMAP
FFFFFFF0
FFFFFFF0
FFFFFFF0
FFFFFFF0
FFFFFFF0
F00000F0
F00000F0
F00000F0
F00000F0
F00000F0
F00000F0
F00000F0
F00000F0
F00000F0
F00000F0
F00000F0
F00000F0
F00000F0
F00000F0
F00000F0
F00000F0
F00000F0
F00000F0
F00000F0
F00000F0
F00000F0
F00000F0
F00000F0
F00000F0
F00000F0
F00000F0
F00000F0
F00000F0
F00000F0
F00000F0
F00000F0
F00000F0
F00000F0
F00000F0
F00000F0
F00000F0
F00000F0
F00000F0
F00000F0
F00000F0
F00000F0
F00000F0
F00000F0
F00000F0
F00000F0
F00000F0
F00000F0
F00000F0
F00000F0
F00000F0
F00000F0
F00000F0
F00000F0
F00000F0
F00000F0
F00000F0
FFFFFFF0
FFFFFFF0
FFFFFFF0
FFFFFFF0
FFFFFFF0
ENDCHAR
STARTCHAR .null
ENCODING -1
SWIDTH 0 0
DWIDTH 0 0
BBX 1 1 0 0
BITMAP
00
ENDCHAR
STARTCHAR nonmarkingreturn
ENCODING -1
SWIDTH 823 0
DWIDTH 62 0
BBX 1 1 0 0
BITMAP
00
ENDCHAR
STARTCHAR DEL
ENCODING -1
SWIDTH 823 0
DWIDTH 62 0
BBX 1 1 0 0
BITMAP
00
ENDCHAR
ENDFONT
